<?xml version="1.0" encoding="UTF-8"?>
<svg width="31mm" height="31mm" version="1.1" viewBox="0 0 109.84252 109.84252" xmlns="http://www.w3.org/2000/svg" xmlns:xlink="http://www.w3.org/1999/xlink">
 <defs>
  <linearGradient id="b">
   <stop stop-color="#502d16" offset="0"/>
   <stop stop-color="#c87137" offset=".40794"/>
   <stop stop-color="#d38d5f" offset=".53684"/>
   <stop stop-color="#c87137" offset=".67931"/>
   <stop stop-color="#502d16" offset="1"/>
  </linearGradient>
  <pattern id="u" patternTransform="matrix(.87832 0 0 .96671 .084902 -.36832)" xlink:href="#a"/>
  <pattern id="t" patternTransform="matrix(.63084 0 0 .86064 -.040098 -.86832)" xlink:href="#a"/>
  <pattern id="s" patternTransform="matrix(.6 0 0 .625 -1.9959 -18.538)" xlink:href="#a"/>
  <pattern id="r" patternTransform="matrix(.55 0 0 .725 -27.334 -1.6991)" xlink:href="#a"/>
  <pattern id="q" patternTransform="matrix(.65 0 0 .7 2.6785 1.6553)" xlink:href="#a"/>
  <pattern id="a" width="10" height="10" patternTransform="translate(0) scale(10)" patternUnits="userSpaceOnUse">
   <circle cx="2.567" cy=".81" r=".45"/>
   <circle cx="3.048" cy="2.33" r=".45"/>
   <circle cx="4.418" cy="2.415" r=".45"/>
   <circle cx="1.844" cy="3.029" r=".45"/>
   <circle cx="6.08" cy="1.363" r=".45"/>
   <circle cx="5.819" cy="4.413" r=".45"/>
   <circle cx="4.305" cy="4.048" r=".45"/>
   <circle cx="5.541" cy="3.045" r=".45"/>
   <circle cx="4.785" cy="5.527" r=".45"/>
   <circle cx="2.667" cy="5.184" r=".45"/>
   <circle cx="7.965" cy="1.448" r=".45"/>
   <circle cx="7.047" cy="5.049" r=".45"/>
   <circle cx="4.34" cy=".895" r=".45"/>
   <circle cx="7.125" cy=".34" r=".45"/>
   <circle cx="9.553" cy="1.049" r=".45"/>
   <circle cx="7.006" cy="2.689" r=".45"/>
   <circle cx="8.909" cy="2.689" r=".45"/>
   <circle cx="9.315" cy="4.407" r=".45"/>
   <circle cx="7.82" cy="3.87" r=".45"/>
   <circle cx="8.27" cy="5.948" r=".45"/>
   <circle cx="7.973" cy="7.428" r=".45"/>
   <circle cx="9.342" cy="8.072" r=".45"/>
   <circle cx="8.206" cy="9.315" r=".45"/>
   <circle cx="9.682" cy="9.475" r=".45"/>
   <circle cx="9.688" cy="6.186" r=".45"/>
   <circle cx="3.379" cy="6.296" r=".45"/>
   <circle cx="2.871" cy="8.204" r=".45"/>
   <circle cx="4.59" cy="8.719" r=".45"/>
   <circle cx="3.181" cy="9.671" r=".45"/>
   <circle cx="5.734" cy="7.315" r=".45"/>
   <circle cx="6.707" cy="6.513" r=".45"/>
   <circle cx="5.73" cy="9.67" r=".45"/>
   <circle cx="6.535" cy="8.373" r=".45"/>
   <circle cx="4.37" cy="7.154" r=".45"/>
   <circle cx=".622" cy="7.25" r=".45"/>
   <circle cx=".831" cy="5.679" r=".45"/>
   <circle cx="1.257" cy="8.519" r=".45"/>
   <circle cx="1.989" cy="6.877" r=".45"/>
   <circle cx=".374" cy="3.181" r=".45"/>
   <circle cx="1.166" cy="1.664" r=".45"/>
   <circle cx="1.151" cy=".093" r=".45"/>
   <circle cx="1.151" cy="10.093" r=".45"/>
   <circle cx="1.302" cy="4.451" r=".45"/>
   <circle cx="3.047" cy="3.763" r=".45"/>
  </pattern>
  <linearGradient id="m" x1="105.74" x2="145.8" y1="57.968" y2="83.093" gradientTransform="translate(-96.229 -23.831)" gradientUnits="userSpaceOnUse">
   <stop stop-color="#800000" offset="0"/>
   <stop stop-color="#800000" stop-opacity="0" offset="1"/>
  </linearGradient>
  <radialGradient id="v" cx="117.89" cy="59.917" r="27.931" gradientTransform="matrix(1.5997 .080556 -.015155 .30096 -137.04 28.063)" gradientUnits="userSpaceOnUse">
   <stop stop-color="#800000" offset="0"/>
   <stop stop-color="#800000" stop-opacity="0" offset="1"/>
  </radialGradient>
  <linearGradient id="n" x1="43.708" x2="50.222" y1="99.39" y2="99.39" gradientUnits="userSpaceOnUse" xlink:href="#b"/>
  <linearGradient id="o" x1="86.589" x2="93.353" y1="90.735" y2="90.735" gradientUnits="userSpaceOnUse" xlink:href="#b"/>
  <linearGradient id="p" x1="21.413" x2="27.478" y1="89.523" y2="89.788" gradientUnits="userSpaceOnUse">
   <stop stop-color="#502d16" offset="0"/>
   <stop stop-color="#c87137" offset=".57811"/>
   <stop stop-color="#d38d5f" offset=".64872"/>
   <stop stop-color="#c87137" offset=".73528"/>
   <stop stop-color="#502d16" offset="1"/>
  </linearGradient>
 </defs>
 <g transform="translate(.4804 1.8744)" fill-rule="evenodd">
  <path d="m5.2632 13.33 12.728 71.418c9.2152 4.9992 18.974 8.3674 28.461 12.551l5.8336-1.4142 44.901-9.5459 1.0607-26.693 4.4194-3.3588c1.6279-1.6904 2.0679-3.9747 2.2981-6.364-0.39422-2.7087-1.4598-5.1776-5.1265-6.7175-9.5459-3.7315-19.092-4.6803-28.638-4.4194l3.3588-23.335c0.26962-4.1595-2.2234-7.0912-6.1872-9.3692-2.7033-1.146-5.4254-2.2694-9.2808-2.0329-2.2016 0.57338-4.5677 0.87243-6.0988 2.5633-7.0711-2.3482-14.142-2.431-21.213-2.4749-8.042 0.41722-16.023 0.61134-24.749 3.5355-2.724 0.51981-3.0769 2.0276-3.0052 3.7123z" fill="#d40000" stroke="#f00" stroke-width=".29055"/>
  <path d="m36.089 46.591c8.9567-0.53033 16.631 4.5132 25.809 1.591 9.574 0.75751 20.06 6.2776 30.052 9.5459l-0.17677 5.6569c-1.0743-3.5467-2.9439-4.3098-4.9498-4.5962 0 0-15.22 1.078-22.804 0.53033-4.232-0.30562-12.551-2.1213-12.551-2.1213-0.701-2.4955-1.1601-5.0314-4.5962-7.0711z" fill="url(#v)"/>
  <path d="m5.2632 13.33 7.2478 41.366c0.76899 2.7419 5.1936 28.445 6.1434 29.559 0.86314 1.0126 2.1182-16.499 3.7561-17.361 3.3588-1.7678 23.158 5.3033 23.158 5.3033l-0.17678-4.2426c-1.8762-0.41506-4.0582-2.311-6.364-5.3033-7.3227-1.6-11.085-3.7468-17.147-6.1872-3.9026-2.1878-5.2772-5.1505-6.5407-7.7782l-0.88388-27.047c-0.495-2.6894 0.16323-4.6868-2.4749-8.6621z" fill="url(#m)"/>
  <path d="m24.09 87.93 0.17678 3.2704c2.0715 0.38029 4.2099 0.09187 6.364-0.35355z" fill="url(#p)" stroke="#800080" stroke-width=".29055"/>
  <path d="m23.952 87.83 0.17678 3.2704c2.0715 0.3803 4.2099 0.0919 6.364-0.35355z" fill="url(#s)" opacity=".294" stroke="#800080" stroke-width=".29055"/>
  <path d="m86.741 89.087 6.4375-1.2188-0.8125 5.4062c-1.8515 0.56182-3.6021 0.31711-5.375 0.25z" fill="url(#o)" stroke="#f0f" stroke-width=".29055"/>
  <path d="m86.811 89.078 6.4375-1.2188-0.8125 5.4062c-1.8515 0.56182-3.6021 0.31712-5.375 0.25z" fill="url(#r)" opacity=".304" stroke="#f0f" stroke-width=".29055"/>
  <path d="m43.866 95.962 0.3125 6.3125c2.0099 0.86906 3.7172 0.77013 5.3125 0.3125l0.5625-5.4687c-2.2163 0.84519-4.2179-0.02769-6.1875-1.1562z" fill="url(#n)" stroke="#f0f" stroke-width=".29055"/>
  <path d="m43.955 96.183 0.3125 6.3125c2.0099 0.86906 3.7172 0.77013 5.3125 0.3125l0.5625-5.4687c-2.2163 0.84518-4.2179-0.0277-6.1875-1.1562z" fill="url(#q)" opacity=".299" stroke="#f0f" stroke-width=".29055"/>
  <path d="m19.368 45.136c-1.1704 0.66506-2.6005 2.9111-2.2715 3.2147 0.30795 0.28418 1.0493-1.4421 2.8203-2.3217 2.0345-1.0105 3.5086-0.86092 3.4084-1.1798-0.18066-0.57486-2.7868-0.37829-3.9572 0.28677z" color="#000000" color-rendering="auto" fill="#500" image-rendering="auto" shape-rendering="auto" solid-color="#000000" style="block-progression:tb;isolation:auto;mix-blend-mode:normal;text-decoration-color:#000000;text-decoration-line:none;text-decoration-style:solid;text-indent:0;text-transform:none;white-space:normal"/>
  <path d="m70.559 64.017c-5.0701 0.73159-14.137 2.6327-15.15 2.6327-0.41854-0.4119-0.92-0.65384-1.1256-0.74334-0.67228-0.29265-1.0948-0.4153-1.3138-0.19634 0.37821 0.17915 0.72366 0.45078 1.0545 0.71458 0.44901 0.358 1.1113 0.87449 1.1174 1.3299 0.01765 1.3104-0.05781 4.1602-0.18748 5.8988-0.19609 2.629-0.4665 4.3565-0.01608 4.9758 0.35724-0.87196 0.898-3.3399 0.95177-5.0458 0.05881-1.8662 0.18071-4.2544 0.15325-6.084 0 0 9.8888-1.3304 14.89-2.0518 6.0188-0.86837 20.031-2.0861 19.844-2.6938-0.40255-1.3046-14.102 0.38101-20.217 1.2634z" color="#000000" color-rendering="auto" fill="#500" image-rendering="auto" shape-rendering="auto" solid-color="#000000" style="block-progression:tb;isolation:auto;mix-blend-mode:normal;text-decoration-color:#000000;text-decoration-line:none;text-decoration-style:solid;text-indent:0;text-transform:none;white-space:normal"/>
  <path d="m42.829 95.622c0.27924 2.3672 0.33812 4.8852 0.85547 6.9023 0.8544 0.75717 2.0011 0.93556 3.0254 1.0116 1.0096 0.075 1.976-0.0596 2.8633-0.32995 0.23325-0.0711 0.48353-0.2764 0.54102-0.64063 0.34385-2.1786 0.57384-3.9517 0.73046-5.9297l-3.2148 0.70312c-1.6002-0.57226-3.2006-1.1445-4.8008-1.7168zm2.4057 1.767 2.3268 0.98694 1.5692-0.42894c0.17897 1.4857 0.07306 2.9731-0.16829 4.3727-0.7519 0.24687-1.4978 0.34133-2.1865 0.29988-0.86209-0.0519-1.1161-0.24856-1.6005-0.60343-0.19922-1.6087-0.31882-3.2175 0.05924-4.6271z" color="#000000" color-rendering="auto" fill="#2b1100" image-rendering="auto" shape-rendering="auto" solid-color="#000000" style="block-progression:tb;isolation:auto;mix-blend-mode:normal;text-decoration-color:#000000;text-decoration-line:none;text-decoration-style:solid;text-indent:0;text-transform:none;white-space:normal"/>
  <path d="m93.895 87.282-7.9257 1.5524c0 1.3288-0.03811 2.6581 0 3.9863 0.01202 0.41906 0.34644 0.72278 0.57227 0.94922 0.2309 0.23152 0.55216 0.26284 0.80664 0.30273 0.28373 0.04448 0.0039 0.0017 0.0059 2e-3 0.0019 3.2e-4 -1.039-0.13821 0.0059 0 1.0725 0.14186 3.0971 0.04266 4.1333-0.04023 0.4229-0.03383 0.84285-0.13131 1.0911-0.37456 0.23901-0.23424 0.39048-0.3873 0.53203-0.81688 0.34621-1.0506 0.56984-3.6556 0.77861-5.561zm-1.707 1.3121c-0.09891 1.4242-0.08848 2.8802-0.54183 3.8778-0.19846 0.43671-0.49576 0.63926-0.79492 0.66992-0.7114 0.07291-1.5314 0.01281-2.4397 0.03919-0.35007 0.01017-0.53025-0.47752-0.49919-0.61934 0.23134-1.0563 0.48727-2.1187 0.28151-3.0657 1.7396-0.35221 2.2548-0.54958 3.9942-0.9019z" color="#000000" color-rendering="auto" fill="#2b1100" image-rendering="auto" shape-rendering="auto" solid-color="#000000" style="block-progression:tb;isolation:auto;mix-blend-mode:normal;text-decoration-color:#000000;text-decoration-line:none;text-decoration-style:solid;text-indent:0;text-transform:none;white-space:normal"/>
  <path d="m23.544 87.264c-0.05906 1.0469-0.18339 2.0921-0.17774 3.1406 3e-3 0.55852 0.23141 0.83241 0.53321 1.127 0.24023 0.23446 0.81906 0.41783 1.1348 0.39258l5.5918-0.44727 0.16602-0.95312zm1.4941 1.4922 4.0195 1.9258-3.3809 0.21875c-0.22388 0.01449-0.38352-0.06615-0.45703-0.11133-0.07689-0.04726-0.28444-0.15895-0.26758-0.52148z" color="#000000" color-rendering="auto" fill="#2b1100" image-rendering="auto" shape-rendering="auto" solid-color="#000000" style="block-progression:tb;isolation:auto;mix-blend-mode:normal;text-decoration-color:#000000;text-decoration-line:none;text-decoration-style:solid;text-indent:0;text-transform:none;white-space:normal"/>
  <path d="m5.2632 13.33 7.2478 41.366c0.76899 2.7419 5.1936 28.445 6.1434 29.559 0.86314 1.0126 2.1182-16.499 3.7561-17.361 3.3588-1.7678 23.158 5.3033 23.158 5.3033l-0.17678-4.2426c-1.8762-0.41506-4.0582-2.311-6.364-5.3033-7.3227-1.6-11.085-3.7468-17.147-6.1872-3.9026-2.1878-5.2772-5.1505-6.5407-7.7782l-0.88388-27.047c-0.495-2.6894 0.16323-4.6868-2.4749-8.6621z" fill="url(#t)" opacity=".32"/>
  <path d="m37.031 47.241c8.9567-0.53033 16.631 4.5132 25.809 1.591 9.574 0.75751 20.06 6.2776 30.052 9.5459l-0.17678 5.6569c-1.0743-3.5467-2.9439-4.3098-4.9497-4.5962 0 0-15.22 1.078-22.804 0.53033-4.232-0.30562-12.551-2.1213-12.551-2.1213-0.701-2.4955-1.1601-5.0314-4.5962-7.0711z" fill="url(#u)" opacity=".296"/>
  <path d="m32.347 2.5754c-5.3718 0.27129-17.175 2.1881-21.107 3.015-2.7805 0.58479-5.0872 1.46-6.9072 2.5921-0.74401 0.46277-1.5167 1.9788-1.2598 3.584 0.15682 0.97971 0.75534 1.6996 1.418 2.3242l11.65 67.775c0.19126 1.1127 0.44715 2.1068 0.82227 2.9199 0.51243 1.1108 1.6473 2.0732 3.2754 2.7363 8.4389 3.437 17.772 7.2381 26.564 10.947 1.2572 0.60013 2.265-0.03319 3.3867-0.60938 0.84266-0.41577 1.7395-0.55799 2.4091-0.93758 14.214-2.9377 28.495-5.537 42.67-8.6426 1.5644-0.34758 2.9393-0.66523 2.9559-3.7042 0.26226-4.3021 0.23875-8.3368 0.56641-12.533 0.30967-3.966 0.38664-7.4786 0.5456-11.403 0.54234-1.3479 1.1527-1.6257 2.1827-2.3647 0.72939-0.5233 1.9901-1.2507 2.6207-2.2591 1.0859-1.7366 1.9359-4.3105 1.6699-6.6011-0.25694-2.2131-1.3433-4.2819-2.9538-5.6891-3.395-2.9665-8.3229-3.6639-12.16-4.5374-5.9997-1.366-15.863-1.533-18.121-1.5625 0.3148-2.1438 0.72249-4.5154 1.0293-6.3477 0.75356-4.5002 1.6748-9.994 2.1934-13.945 0.36394-2.7732 0.24673-6.0902-1.6055-8.668-2.2639-3.1507-6.1276-4.5933-9.5391-5.291-2.3282-0.47618-5.2851-0.13386-7.7969 0.25586-2.3538 0.36521-3.5069 1.5587-3.7394 1.6144-0.40038-0.05746-12.659-3.0784-20.77-2.6688zm0.20407 2.5001c7.0706-0.066713 17.782 1.2663 20.107 2.2935 0.33926 0.62881 0.48641 1.6112 1.0336 3.2712 0.63887 1.938 1.2687 4.4669 1.9007 7.2282 1.264 5.5225 2.3117 12.155 2.4062 18.108 1.3731 4.037 3.0009 8.1878 3.7385 11.948 0.49774 2.5374 1.3356 5.3013 1.5181 6.5922-4.1149 0.16463-8.2642 0.99865-10.355 1.4983-0.47506-1.7004-1.3142-3.8257-3.2484-5.1946-3.2056-2.2688-6.5854-3.4124-10.221-4.2358-4.5216-1.024-12.524-1.9282-13.632-2.4621-0.54715-2.0182-0.69017-4.9473-0.83984-6.7857-0.3196-3.9255-0.59628-8.6146-0.97435-12.019-0.50018-4.5042-0.92377-9.5345-3.9951-13.985-0.84625-1.2264-3.7482-3.4224-5.646-3.8137 4.5777-1.0867 13.623-2.3993 18.208-2.4426zm31.536 1.0758c3.0587 0.51815 6.2245 1.9716 7.8027 4.168 1.1726 1.6319 1.4082 4.2781 1.0977 6.6445-0.50628 3.8578-1.4299 9.3449-2.1777 13.846-0.38268 2.3031-0.51196 4.9916-0.81614 7.1581-1.5457 0.31846-3.4834 0.71669-4.749 1.4294-1.0391 0.58511-1.9112 1.6218-2.723 2.4817-0.56257-2.0282-1.785-4.4198-2.5552-6.0325-0.12341-6.181-0.77953-12.956-2.061-18.554-0.64931-2.8369-1.3532-5.3826-2.0273-7.4277-0.38804-1.1772-0.74783-2.1505-1.1094-2.9727 0.66789-0.54009 1.5895-0.88466 2.5797-1.024 2.3526-0.33096 4.5313-0.090196 6.7386 0.28373zm-52.152 1.918c1.0908-0.041092 2.902 0.51563 3.6332 1.0502 1.0453 0.76417 2.5047 2.1486 3.1555 3.0917 2.3887 3.4617 2.8534 7.2696 3.5498 12.476 0.4051 3.0289 0.49414 8.5111 0.81682 12.483 0.16134 1.986 0.63061 4.3706 0.91204 5.7915 0.28786 1.4534 0.63189 2.5282 1.7175 2.7716 4.8938 1.0975 8.8891 1.4991 12.862 2.6158 2.2053 0.61977 8.4716 2.4148 10.213 3.6888-4.4136-2.4923-7.8892-0.38959-9.297 1.39-2.107 2.6634-2.5783 5.6745-2.291 8.1211 0.08696 0.74061 0.58265 2.2146 0.78117 2.8468-1.4062-0.40359-3.5455-1.3217-5.5015-2.0966-4.3308-1.7157-9.533-3.9159-12.285-6.0686-1.2667-0.9907-2.2855-2.5249-2.9375-4.1426-0.81597-2.0246-0.77409-4.5689-1.0293-7.2598-0.7964-8.3985 0.25213-16.888-1.1602-26.324-0.14313-0.95634-0.45291-2.2244-0.88281-3.4512s-1.0659-2.6441-2.5586-3.1621c-1.9162-0.665-4.2645 0.62187-5.7695-0.34153-1.0136-0.64884-0.47658-1.4361 0.21492-1.9406 1.7791-1.2981 3.909-1.4667 5.8562-1.5401zm-4.5028 6.3964c0.97022-0.92149 2.8886-1.0651 3.8768-0.3098 1.3209 1.0095 1.5321 3.1079 1.7418 4.7897 1.0278 8.2401 0.9764 17.082 1.1501 26.151 0.04703 2.4563-0.0028 5.3481 1.1101 8.109 0.79643 1.976 1.6389 3.4134 3.4242 4.8097 3.3528 2.6222 8.3101 4.8158 12.844 6.3509 4.425 1.4982 6.5155 2.5881 8.0414 3.0256 1.4383 0.70633 3.1722 1.7796 5.2175 1.3946l1.5342 27.1s-15.197-6.6587-22.608-9.4074c-1.6367-0.60707-3.1203-1.1871-4.2325-2.3276-0.81898-0.83979-0.89815-2.0068-1.0715-3.0155-3.8262-22.261-11.028-66.671-11.028-66.671zm33.742 22.514c-3.2751 0.3616-9.8369 1.2623-9.6855 2.1832 0.16671 1.0143 6.5553 0.25162 9.8362-0.09925 3.3558-0.35888 10.174-1.0294 9.8699-2.0404-0.14644-0.48755-6.6615-0.41439-10.021-0.04353zm55.883 6.8846c-2.3382 1.1991-4.3668 3.5135-4.6992 5.6191-0.52656 3.3356-0.31422 8.1181 0.07178 11.422-0.9793-1.8565-3.2197-2.8438-4.8276-3.1654-2.2521-0.45042-22.791-3.2913-22.791-3.2913-0.51431-3.5948-1.116-7.3515-1.858-10.661 0.98335-1.1973 1.8424-1.891 3.1322-2.8305 0.40539-0.29529 1.8402-0.92459 2.8619-0.9544 9.8743-0.28807 19.495 0.51374 28.11 3.8615zm6.6114 6.0478c0.18043 1.3426-0.77403 3.4566-1.7082 4.7711-0.98448 1.3852-2.9481 2.0541-3.9381 3.2188-0.54964 0.64656-0.90968 1.6781-0.94283 2.7991-0.12976 4.3876-0.2293 6.8476-0.33083 10.891-0.10026 3.9924-0.31936 9.675-0.69787 13.368-0.69038 0.41567-2.3634 0.7641-3.0702 0.88379 0.02333-4.9787-0.20084-8.4519 0.16872-13.574 0.22137-3.0679 0.43661-8.5124 0.42547-11.543-0.01725-4.6922-0.2262-8.8944 0.34729-10.994 0.32837-1.2023 2.5162-3.622 3.8018-4.0988 3.5586-1.3196 5.6431 2.034 5.9447 4.2784zm-57.587 2.9448c1.7572-0.01929 3.6519 1.0651 4.2236 1.6656 0.42337 0.44472 0.98956 2.0526 1.107 2.5874 0.59864 2.7259 0.06365 5.3391-0.22496 8.065-0.28704 2.711 0.24869 10.063 0.16483 15.404-0.07419 4.7256-0.41542 14.558-0.41542 14.558-0.77739 0.50391-1.7632 0.83074-2.5709 1.1449l-1.9238-29.988c-0.83174 0.41769-1.9978 0.45448-2.7337 0.22321-2.1382-0.67191-3.81-2.5602-4.1347-5.2412-0.22324-1.8433 0.07532-4.4665 1.8099-6.3691 1.2362-1.3559 3.1826-2.0334 4.6982-2.0501zm18.036 3.4333 23.111 3.0863c1.3863 0.18513 3.1408 0.9853 3.7919 1.9586 0.68122 1.0183 1.4467 2.9046 1.5034 4.3231 0.0563 1.4076-0.19809 4.6637-0.70482 6.9158-12.89 3.4524-25.779 5.3731-38.669 6.7343-0.14771-3.9467-0.41429-9.1786-0.56466-13.795 0.58431-2.7472 0.80705-4.691 0.55711-7.3789 2.5341-0.5916 5.7887-1.4905 10.974-1.8443zm27.745 18.3c-0.22195 4.8506-0.18997 11.061-0.21849 11.652-12.859 2.7497-36.427 7.3502-39.124 7.8769l0.53711-12.712c12.881-1.8425 25.776-3.7926 38.805-6.817z" color="#000000" color-rendering="auto" fill="#500" image-rendering="auto" shape-rendering="auto" solid-color="#000000" style="block-progression:tb;isolation:auto;mix-blend-mode:normal;text-decoration-color:#000000;text-decoration-line:none;text-decoration-style:solid;text-indent:0;text-transform:none;white-space:normal"/>
 </g>
</svg>
