<?xml version="1.0" encoding="UTF-8"?>
<svg width="500" height="500" version="1.1" viewBox="0 0 500.00001 500.00001" xmlns="http://www.w3.org/2000/svg">
 <g transform="matrix(7.0274 0 0 7.0274 74.315 -6969.7)">
  <circle cx="25" cy="1027.4" r="23.151" fill="none" stroke="#555" stroke-width="2.0801"/>
  <path transform="translate(0 1002.4)" d="m15.508 11.186c-1.2433 0-2.2598 1.0145-2.2598 2.2578v23.115c0 1.2433 1.0164 2.2578 2.2598 2.2578h16.117c1.2433 0 2.2578-1.0145 2.2578-2.2578v-1.0234l-0.46094 0.19141-0.45117 0.1875v0.64453c0 0.7539-0.59181 1.3457-1.3457 1.3457h-16.117c-0.75389 0-1.3477-0.5918-1.3477-1.3457v-23.115c0-0.7539 0.59374-1.3457 1.3477-1.3457h16.117c0.75392 0 1.3457 0.5918 1.3457 1.3457v16.725l0.91211-0.96875v-15.756c0-1.2433-1.0145-2.2578-2.2578-2.2578h-16.117zm18.375 19.475-0.82031 0.87109 0.82031 0.77148v-1.6426zm-0.91211 2.7383v1.4355l0.06836-0.02734 0.54883-0.23047 0.29492-0.12109v-0.19727l-0.91211-0.85937z" color="#000000" color-rendering="auto" fill="#555" image-rendering="auto" shape-rendering="auto" solid-color="#000000" style="block-progression:tb;isolation:auto;mix-blend-mode:normal;text-decoration-color:#000000;text-decoration-line:none;text-decoration-style:solid;text-indent:0;text-transform:none;white-space:normal"/>
  <path d="m16.922 1017.8a0.45599 0.45599 0 0 0 0.04687 0.9102h13.195a0.45599 0.45599 0 1 0 0 -0.9102h-13.195a0.45599 0.45599 0 0 0 -0.04687 0z" color="#000000" color-rendering="auto" fill="#555" fill-rule="evenodd" image-rendering="auto" shape-rendering="auto" solid-color="#000000" style="block-progression:tb;isolation:auto;mix-blend-mode:normal;text-decoration-color:#000000;text-decoration-line:none;text-decoration-style:solid;text-indent:0;text-transform:none;white-space:normal"/>
  <path d="m16.969 1020.8a0.45605 0.45605 0 1 0 0 0.9121h13.195a0.45605 0.45605 0 0 0 0 -0.9121h-13.195z" color="#000000" color-rendering="auto" fill="#555" fill-rule="evenodd" image-rendering="auto" shape-rendering="auto" solid-color="#000000" style="block-progression:tb;isolation:auto;mix-blend-mode:normal;text-decoration-color:#000000;text-decoration-line:none;text-decoration-style:solid;text-indent:0;text-transform:none;white-space:normal"/>
  <path d="m16.969 1023.9a0.45605 0.45605 0 1 0 0 0.9121h13.195a0.45605 0.45605 0 0 0 0 -0.9121h-13.195z" color="#000000" color-rendering="auto" fill="#555" fill-rule="evenodd" image-rendering="auto" shape-rendering="auto" solid-color="#000000" style="block-progression:tb;isolation:auto;mix-blend-mode:normal;text-decoration-color:#000000;text-decoration-line:none;text-decoration-style:solid;text-indent:0;text-transform:none;white-space:normal"/>
  <path d="m16.969 1026.9a0.45605 0.45605 0 1 0 0 0.9121h13.195a0.45605 0.45605 0 0 0 0 -0.9121h-13.195z" color="#000000" color-rendering="auto" fill="#555" fill-rule="evenodd" image-rendering="auto" shape-rendering="auto" solid-color="#000000" style="block-progression:tb;isolation:auto;mix-blend-mode:normal;text-decoration-color:#000000;text-decoration-line:none;text-decoration-style:solid;text-indent:0;text-transform:none;white-space:normal"/>
  <path d="m16.969 1029.9a0.45605 0.45605 0 1 0 0 0.9121h13.195a0.45605 0.45605 0 0 0 0 -0.9121h-13.195z" color="#000000" color-rendering="auto" fill="#555" fill-rule="evenodd" image-rendering="auto" shape-rendering="auto" solid-color="#000000" style="block-progression:tb;isolation:auto;mix-blend-mode:normal;text-decoration-color:#000000;text-decoration-line:none;text-decoration-style:solid;text-indent:0;text-transform:none;white-space:normal"/>
  <path d="m16.969 1033a0.45605 0.45605 0 1 0 0 0.9121h13.195a0.45605 0.45605 0 0 0 0 -0.9121h-13.195z" color="#000000" color-rendering="auto" fill="#555" fill-rule="evenodd" image-rendering="auto" shape-rendering="auto" solid-color="#000000" style="block-progression:tb;isolation:auto;mix-blend-mode:normal;text-decoration-color:#000000;text-decoration-line:none;text-decoration-style:solid;text-indent:0;text-transform:none;white-space:normal"/>
  <path d="m16.969 1036a0.45605 0.45605 0 1 0 0 0.9121h13.195a0.45605 0.45605 0 0 0 0 -0.9121h-13.195z" color="#000000" color-rendering="auto" fill="#555" fill-rule="evenodd" image-rendering="auto" shape-rendering="auto" solid-color="#000000" style="block-progression:tb;isolation:auto;mix-blend-mode:normal;text-decoration-color:#000000;text-decoration-line:none;text-decoration-style:solid;text-indent:0;text-transform:none;white-space:normal"/>
  <g transform="matrix(.098732 .023273 -.023273 .098732 25.86 948.81)" fill="#555">
   <path transform="translate(0,552.36)" d="m303.57 167.92c-1.0038 0.0702-1.953 0.6237-2.4961 1.5644l-2.0039 3.4688 33.439 19.307 2.0039-3.4688c0.86903-1.5052 0.35676-3.4181-1.1484-4.2871l-28.006-16.168c-0.56445-0.32588-1.1868-0.45812-1.7891-0.41601zm-6.5859 8.6465-42.156 73.018 33.439 19.305 42.156-73.016-33.439-19.307zm-44.242 76.631-1.9863 3.4394c-0.86903 1.5052-0.35677 3.4161 1.1484 4.2852l28.006 16.168c1.5052 0.86903 3.4161 0.35676 4.2852-1.1484l1.9863-3.4394-33.439-19.305z"/>
   <path d="m249 850.66c-1.0612-0.61275-0.68138-3.6463-0.68138-3.6463l0.59844-5.8633 0.59864-5.8636 0.59845-5.863 0.59855-5.8633 0.59844-5.8633 0.59864-5.8633 0.59845-5.8633 4.18 2.4133 4.18 2.4133 4.18 2.4133 4.18 2.4133 4.18 2.4133 4.18 2.4133 4.18 2.4133 4.18 2.4133-4.7784 3.45-4.7786 3.45-4.7784 3.45-4.7785 3.45-4.7784 3.45-4.7786 3.45-4.7784 3.45s-2.4374 1.8458-3.4986 1.233z"/>
  </g>
  <path transform="translate(0 1002.4)" d="m39.068 24.623c-0.10074-0.016-0.20574 0.01766-0.28125 0.09766l-0.2793 0.29492 2.8516 2.6836 0.2793-0.29492c0.12083-0.1284 0.11471-0.32842-0.01367-0.44922l-2.3887-2.248c-0.04815-0.045-0.10752-0.07398-0.16797-0.08398zm-0.85156 0.70117-5.8613 6.2285 2.8535 2.6836 5.8613-6.2285-2.8535-2.6836zm-6.1504 6.5352v2e-3l-0.0332 0.03516-0.24219 0.25781c-0.1162 0.12348-0.11248 0.31176 2e-3 0.43359l-0.15039 0.4375-0.19531 0.56445-0.19531 0.56641-0.19531 0.56445-0.19727 0.56445-0.19531 0.56641s-0.10809 0.29-0.01758 0.375c0.09051 0.0855 0.375-0.04102 0.375-0.04102l0.55274-0.22852 0.55078-0.23047 0.55273-0.22852 0.55274-0.22852 0.55078-0.23047 0.42773-0.17773c0.12858 0.10748 0.31716 0.10057 0.43359-0.02344l0.24023-0.25586 0.0039-2e-3 0.03125-0.03516-2.8516-2.6855z" fill="#555"/>
 </g>
</svg>
