<?xml version="1.0" encoding="UTF-8"?>
<svg viewBox="0 0 30 30" xmlns="http://www.w3.org/2000/svg">
 <defs>
  <linearGradient id="a" x1="21.375" x2="32.5" y1="23.879" y2="25.504" gradientUnits="userSpaceOnUse">
   <stop stop-color="#f57900" offset="0"/>
   <stop stop-color="#c66100" offset="1"/>
  </linearGradient>
  <linearGradient id="c" x1="6.125" x2="17.75" y1="7.629" y2="12.754" gradientUnits="userSpaceOnUse">
   <stop stop-color="#73d216" offset="0"/>
   <stop stop-color="#5ba711" offset="1"/>
  </linearGradient>
  <linearGradient id="b" x1="19.313" x2="24.037" y1="6.652" y2="7.293" gradientUnits="userSpaceOnUse">
   <stop stop-color="#ef2929" offset="0"/>
   <stop stop-color="#b80d0d" offset="1"/>
  </linearGradient>
 </defs>
 <g transform="translate(.21769 1.9253)">
  <path d="m7.83823.12497c-.0969.01294-.19006.04582-.27361.09657l-7.21054,4.12031c-.2187.12609-.35364.35916-.35409.61161v7.21054c-.0008.24029.12043.46456.3219.59551l6.18046,4.12031c.22405.14442.51025.15064.74037.01609l7.21053-4.12031c.2187-.12609.35364-.35917.35409-.61161v-7.21054c.0008-.24029-.12043-.46456-.3219-.59551l-6.18046-4.12031c-.13769-.09082-.30279-.13067-.46675-.11266z" fill="#315b09"/>
  <g transform="matrix(.45425 0 0 .45425 .87383 1.0598)">
   <path d="m1.375 9.504 12 8v14l-12-8v-14z" fill="#8ae234"/>
   <path d="m15.375 1.504 12 8-14 8-12-8 14-8z" fill="url(#c)"/>
   <path d="m27.375 9.504v14l-14 8v-14l14-8z" fill="#4e9a06"/>
  </g>
 </g>
 <path d="m22.8132,2.05023c-.0969.01294-.19006.04582-.27361.09657l-7.21054,4.12031c-.2187.12609-.35364.35916-.35409.61161v7.21054c-.0008.24029.12043.46456.3219.59551l6.18046,4.12031c.22405.14442.51025.15064.74037.01609l7.21054-4.12031c.2187-.12609.35364-.35916.35409-.61161v-7.21054c.0008-.24029-.12043-.46456-.3219-.59551l-6.18046-4.12031c-.13769-.09082-.30279-.13067-.46675-.11266z" fill="#640000"/>
 <path d="m16.456 7.293 5.4667 3.6445v6.3778l-5.4667-3.6445v-6.3778z" fill="#d40000"/>
 <path d="m22.834 3.6486 5.4667 3.6445-6.3778 3.6445-5.4667-3.6445 6.3778-3.6445z" fill="url(#b)"/>
 <path d="m28.301 7.293v6.3778l-6.3778 3.6445v-6.3778l6.3778-3.6445z" fill="#a40000"/>
 <g transform="translate(-.32691 2.7208)">
  <path d="m15.31954,8.36558c-.0969.01294-.19006.04582-.27361.09657l-7.21053,4.12031c-.2187.12609-.35364.35916-.35409.61161v7.21053c-.0008.24029.12043.46456.3219.59551l6.18046,4.12031c.22405.14442.51025.15064.74037.01609l7.21054-4.12031c.2187-.12609.35364-.35917.35409-.61161v-7.21053c.0008-.24029-.12043-.46456-.3219-.59551l-6.18046-4.12031c-.13769-.09082-.30279-.13067-.46675-.11266z" fill="#6e3600"/>
  <g transform="matrix(.45216 0 0 .45216 1.8173 2.1004)">
   <path d="m15.901 25.504 12 8v14l-12-8v-14z" fill="#fcaf3e"/>
   <path d="m29.901 17.504 12 8-14 8-12-8 14-8z" fill="url(#a)"/>
   <path d="m41.901 25.504v14l-14 8v-14l14-8z" fill="#b65100"/>
  </g>
 </g>
</svg>
