<?xml version="1.0" encoding="UTF-8"?>
<svg width="500" height="500" version="1.1" viewBox="0 0 500.00001 500.00001" xmlns="http://www.w3.org/2000/svg">
 <g transform="translate(0 -552.36)">
  <path d="m250 571.78 199.69 115.29-1e-5 230.58-199.69 115.29-199.69-115.29 7e-6 -230.58z" fill="none" stroke="#555" stroke-linecap="round" stroke-width="18.446"/>
  <path d="m250 702.45c-32.861 0-59.5 26.639-59.5 59.5-0.70711 29.463 18.446 40.953 24.236 51.641 3.1181 9.7533 5.4623 47.923 5.8711 51.301 2.1307-1.1713 4.5733-1.8398 7.1699-1.8398h44.445c2.5967 0 5.0392 0.66852 7.1699 1.8398 0.40877-3.3779 2.753-41.548 5.8711-51.301 5.7904-10.687 24.943-22.178 24.236-51.641 0-32.861-26.639-59.5-59.5-59.5zm-22.223 165.6c-5.5528 0-9.9453 4.3926-9.9453 9.9453v14.334c0 5.5528 4.3926 9.9453 9.9453 9.9453h44.445c5.5528 0 9.9453-4.3926 9.9453-9.9453v-14.334c0-5.5528-4.3926-9.9453-9.9453-9.9453z" fill="#555"/>
 </g>
</svg>
