<?xml version="1.0" encoding="UTF-8"?>
<svg viewBox="0 0 896 1117" xmlns="http://www.w3.org/2000/svg">
 <g fill-rule="evenodd">
  <path d="m528 563h5l19 3q19 4 20 4h2l2 1 1 1h3v1h-33q-33-1-67 0h-41q-7-1-25-1l-18-2h-3v-1l55-1q54-2 56-2t2-1 8-1q9 0 14-1z" fill="#484c7a" stroke="#484c7a"/>
  <path d="m547 573h35q1 1 1 1h-6q-6 0-33 2-27 1-32 7-4 5-10 6t-8 0-2-2-2-3q-3-2-8-3h-5q0-1-5-2l-5-1-3-1-3-1h1q2 0 4-1l2-1h-22v-1h34q34-1 67 0z" fill="#492a43" stroke="#492a43"/>
  <path d="m435 938h3l2 1 1 1h8v1h-1v1h-12l28 2q29 2 57 0t37 0q10 2 27 10t29 14q11 6 14 8 2 0 3 1l1 1h3l1 1v1h1v1h1v1h-5l-2 1q-2 1-3 2-2 1-4 3-2 1-10 2-8 2-22 4-14 3-14 4t-23 3q-23 3-21 4t-11 3l-12 2h2v2h-6v1h-1q-1 1-12 3l-12 2h2q1 0 1 1t1 1h1l-3 1h-14q-11 1-15 0-3-1-6-2-2-1-38 0t-69 3-73 4-60 0l-20-2t-9-2q-10-2-38-9-29-7-38-8l-8-1h-1q-1 0-3-2-3-2-10-7-6-6-7-5v1h-1q0-1 0-1-1 0-1-1h-1q0-1-4-5-4-5-4-16t4-15l4-4v-1l1-1 1-1v-1h1v-1h4v1h1v2h-1v1h-1v1h-1v1q1 0 1 1v3l-1 2-1 1v7h1v-1h1v-1h1v-1h1l1-1q1-2 6-1t11 3q5 4 16 3t20-9q10-10 15-12t17-2q11-2 16-3 4-1 4-2t2-1q1 0 1-1t3 1q2 1 6 4 4 2 14 2 9 0 57-1t99-1q52 0 58-1t9-1z" fill="#e3dfd6" stroke="#e3dfd6"/>
  <path d="m308 212v1q0 1 0 1h1v1l1 1 6 11q6 11 13 21 7 8 10 12t22 4q19-2 25-2 6-2 44-1 37 1 50 1 13 2 14 1h3l1-1h1v-1h1v-1h2v-1h1v-1l5-1q5-2 5-1t7-1q8-1 15-3t15-7q9-5 10-5h1l1-1 1-1h7-2v1h-1v1h-2v1h-1v1h-2 5l1-1 1-1 9-3q8-3 10-4 1 0 1 1t3 1q4-1 7-1h3l2-1 1-1h2v2h-1q-1 0-2 1l-1 1h-1 6q3-2 4-2h6-2q-1 0-2 1l-1 1h-2l1 1 1 1h2l1-1 2-1 7-4q7-6 15-8 8-4 13-9t7-5 5-6 3-7l1-1 1-2 1 1 1 1h1v1h1v1l4 2q4 3 4 6 0 2 4 4 4 1 7 4t3 3v1l1 1 1 1v1h1v1h1v1l1 1v1h-1l-1-1h-1v-2h-1v-1h-1q0-1-3-3l-3-2v-1l-1 1-1 1v2h-1v1h-1v2q0 2-2 7t-4 8q-3 3-8 5t-8 2q-4 0-6-2-1 0-7 0t-11 3q-6 3-12 6-5 3-17 7t-27 8q-14 4-31 10-17 5-26 9-10 3-73 6t-67 7q-3 4-8 8-4 4-9 5t-8-1q-2 0-8 0t-10-4-9-4-6 5-5 7q-3 2-10 2-6 0-10 2-5 2-5 8-1 6-2 9-2 3-6 11-3 9-7 11-3 2-4 8 0 6-2 7 0 2-5 3l-4 1-1 1q-2 0-2-1t-4-4q-4-2-6-5-1-3-2-3h-1l-1-1q-2 0-2 1t-1 1l-1-1t-2 0h-2v2q2 3 2 4v1h-1v-1h-1v-1t-2-1q-1 0-1 2l-1 1v1h-1l-1 1v-1h-1q-1-1-1-1v-1t-1 0q-1-1-5-8-4-6-10-20l-6-13v-1t-1 0v-2q-1-1-1-6-2-4-4-20l-2-16v-3h-2l-1 1h-1l1 18q1 18 1 22 2 4 2 6v1l1 2 1 2v2h1l2 7q3 7 3 8v1h1v1h1v2h-2v-2h-1v-1h-1v1h-1v-1h-1v-2l-1 1-1 2q-1 0-6-6-4-8-6-17l-3-9v-2l-1-1v-3q0-3 2-6 0-2 2-15 0-13 1-24t-4-21-10-19-7-18q-2-8-3-16 0-7 1-10 0-2 2-1 1 0 2-3v-3h1q1 1 1 0t2 1 2 0 1-3l1-1 1 2q2 1 3 1t1 0l3 4q2 5 4 15t5 12q2 3 3 3 0 1 1 1v1h1q2 0 3-1h1v1q0 1-1 2v2l-1 2q0 3-1 6l-1 3v5h3v-1h1v-2l1-1v-2h1q1 0 2-1 0-1 3-9l3-9v-1h1v-1h1v-2h1v-1h1l8-13q8-13 14-20t12-12q7-5 12-5 4 0 7 3t11 19 12 26q6 9 6 10zm-117-30q1-1 1 0 1 2 0 2t-1-2zm46 186l1-1v1l1 1q0 1-1 1t-1-2z" fill="#46885b" stroke="#46885b"/>
  <path d="m338 587h5v1h3l2 1 2 1h1l1 2q0 1 10 3 11 1 17 3 5 2 6 3 0 1 6 1t9-1q3 0 4 1 1 2 11 1 9 0 10-1 0-1 1-1l1-1h2v1h-1v1l1 1q1 1 1 3-2 1-2 1v1l20 3q20 3 26 6t15 4 15 0q7-1 24-1t17 1 7 2 11 4 5 3h1l1 1q2 1 2 1v1h1v1l5 2q4 4 5 4h1l1 1 1 1h2l-2 1-2 1-1 2q-1 1-5 4-4 2-4 2v1h-1v1h-1v3h-1v1h-1l1 1 1 1h3l14 2q14 2 23 5 10 3 10 4t8 5q9 4 27 9 19 5 24 7t13 6q9 4 20 6 11 4 22 6 10 2 12 3t4 2 9 4q6 3 7 3h1v1l1 1v3h2l1 1h-2v1h-1v1h-2l-2 1q-1 1-2 2 0 1-10 2l-9 1v1h-2q-2-1-4-1h-2v1h-1v5l2 5q1 5 5 7t14 9q11 6 17 10 6 3 14 8t8 6 1 1v1h1v1h1v1h1v1l-1 2-1 1v1h-1q-1 0-2 2-1 0-5 2-4 0-8 3t-20 1q-15 0-44-6-28-4-52-11-25-6-25-7t-5-2l-6-2h-3l-1-1-1-1h-1q-1 0-12-7-10-7-10-8t-12-11q-12-9-26-16-14-6-18-7t-36-2-51-3-46-3q-26-1-27-1 0-1-3-2-2-2-25-4t-36-6l-12-4h-3l1-1 1-1h-1l2-1 2-1h-1l-1-1-1-1h-1v-1t-2-1q0-1 1-2 1 0-1-2h-2l-1-1-1-1h-3l13-2q12-2 20-3t9-2 21 0q21 1 26 1 4 0 4-1-1-1 0-1 0-1 1-2 0 0 9-2 9 0 8-1-2-1 2-1h4l2-1h3v-2h-7l-6-1h4v-1h1v-1h-1l-1-1-1-1h7v-1l13 1q14 0 16 1h1v1l13 1q14 1 19 2h5v1h2l1 1 1 1 12 1q12 1 17 3 5 1 35 7 30 5 44 10t26 5q11 2 12 2h10v-1h-1v-1h-1v-1h-1v-1h-3l-2-1q-1-1-4-3-2-3-8-6-6-2-6-4-2-1-5-5t-13-5q-11-2-18-2t-8 1q-2 1-14 1t-19-2-7-3-2-1q-3 0-3-1-1-1-4-2l-4-1 2-1q2-1 3-2 0-1-1-1t-1-2v-2h-1l-3-1h-4v1q0 1-3 1l-3 1h-2v1q0 1 1 1t3 1l1 1h-4q-4 0-5 0-2 0 0 0 2 2-2 2h-3l-3 1-2 1h-4q-3 0-16-2l-12-1v-1t-35-2l-34-2h-3q-4 0-8-1t-24-1l-21-1q0-1-6-1h-6l-1-1h-2v-1h-1l-2-1-2-1h16l-1-1-2-1h-3v-1h1v-1q0-2-2-3-1-1-2-3 0-3-3-4-3-2-5-8-3-6-16-8t-14-3q-2-2-7-4-5-1-7-3-3-2-7-2t-4 1-1 1q-2 0-7 0h-5v1h-1v1h-2v1h-1q0-1-4-5l-4-4q0-1-1-1v-1q-1 0-3-4l-2-3h-1v-1h-1v-1l-1-1v-1h1l1 1h3v-1l2-1q2 0 2-1t4-2 19 1 45 2q29 0 34-1zm49 48l1-1 4 2q5 0 10 1h32q27 1 35 2t11 1h4v1h1v1h1v5h-1v1h-4q-4 0-22 0t-39-1l-20-1-2-1-2-1h-5l-1-1-1-1q-1 0-1 0 0-1-1-4-1-2 0-3zm259 65h1-1z" fill="#901a2e" stroke="#901a2e"/>
  <path d="m555 120v-1l6 3q5 4 7 5t3 2q0 1 4 4 3 3 5 5 0 2 0 6v8h-1v1h-1v1h-1l-1-1v-12l-1-1-1-1v-1h-1t-6-6l-7-6v-1q0-1-3-3-2-1-2-2z" fill="#86b389" stroke="#86b389"/>
  <path d="m579 502v-1l4 1q4 2 5 4t2 2 1 1 4 3q3 1 8 5 5 3 11 5t6 3q2 1 2 2v1h2q2-1 2-2v-2q0-1-2-2v-2h-1v-1h-1v-1l-1-1-1-1t-2-2q-1-2 1-1l1 1h1v1h1v1h1l1 1 1 1h1v1h1v1l4 2q4 4 9 8 5 6 7 6 2 2 8 4 6 4 13 4 6 2 9 2 3 2 5 2h2l1 1h1l14 7q13 6 21 10t11 5 4 2l2 1h1l1 1 1 1h1l2 1 2 1h-9q-2 0-3 0 0 0-10 0-9 2-22 1-14-1-29-3-15-4-31-7-16-4-16-5t-6-2l-6-2h-5l-1-1-2-1 10-1q11-1 12-1h1l1-1h1v-1l1-1v-1h-1l1-1h1v-1l-1-1v-1h-1t0-1q-1-1-3-3-3-2-4-4 0-2-1-2t-1-1-8-7q-7-6-7-7-1-1-7-6t-10-8l-4-3h-2q-1 0-3-2-2-1-2-2zm47 29q0-1 1-1t1 1v1h-1q-1 0-1-1z" fill="#315486" stroke="#315486"/>
  <path d="m257 426l4-1h7q2 1 10 1h9l13 2q14 0 35 1l21 1h-14q-13 0-19 1l-6 1h-1l-2 1-1 1h4v1h-6q-6-1-31-3l-26-2h-7l-1-1h-1v-1h5q4 0 6-1l2-1h-1z" fill="#85ad86" stroke="#85ad86"/>
  <path d="m256 507h1l8 6q8 5 9 6l1 1h1v1h1v1h1v1h1v1h1l-2 1h-4l-1-1h-2v-1h-1q0-1-1-1t-11-7l-10-7q0-1-1-1v-1q-1 0-1 0 0-1-1-1v-1q-1 0-1 0 0-1-1-1v-1h-1v-1h-1v-1l-1-1v-1h-1v-1h-1l1-2q0-1 2 0 3 1 8 6 6 5 7 6z" fill="#a5b8d5" stroke="#a5b8d5"/>
  <path d="m480 891h1l11 1q11 0 12 1 2 1 1 1v1h-2q-2 1-17 1t-118 0h-106v-1h-1v-1h4l19-1q19-1 27-1h8l4 1h4l68-2q68-1 75-1 8 0 10 1z" fill="#f4e06b" stroke="#f4e06b"/>
  <path d="m572 457h18l15 5q15 4 15 5h1q0 1 1 1v1q0 1-1 3-1 1-3 2h-2v3l1 1v1l3 2q2 2 3 3 0 1 13 9 14 8 16 10 3 1 5 2 1 1 2 3t3 3 2 2 4 4q3 3 4 3 0 0 0 1h1q0 1 1 1 0 0 0 1h1q0 1 1 1v2q-1 2-1 2h1l1 2q1 3 4 7 2 4 3 4h1v1l1 2v2h1v1h1v1h-2v1h-1l-1-1h-2q-2 0-5-2-3 0-9-2-7 0-13-4-6-2-8-4-2 0-7-6-5-4-9-8l-4-2v-1h-1v-1h-1l-1-1-1-1h-1v-1h-1v-1h-1v2l1 1 1 1v1h1v1h1v2q2 1 2 2v3l1 1 1 2v2h-2v-1l-1-1v-1h-1l-1-1h-1v-1q0-1-1-2t-7-3-8-4q-3-2-10-6l-6-3v-1t-2-1l-2-1t-1-2q0-1-3-2l-3-1h-1q-2-1-4-2-1-2-7-3-6 0-39-1t-36 1q-2 0-4-1-1-1-15-1t-25-2q-10-2-22 0-13 0-14-1t-10-2q-8-1-42-3-33-4-42-6t-13-2l-4-2h-3v-1h37q37-1 39-1 3 0 2-1-2-1 16-1 19-2 60-2t42-1q2-1 2-2 1-1 3-2 1-1 3 1 1 2 4 2h3v-2q0-1 1-1l1-1h1v-4h1l3-1 2-1h18q19 0 36-1zm45 56q0-1 0-1 1 0 1 0 0 1-1 1zm56 12q0-1 0-1 1 0 1 0 0 1-1 1z" fill="#273352" stroke="#273352"/>
  <path d="m328 644v1h-1v1h3l2 1 1 1h-16l2 1 2 1h1v1h-12q-12-1-20-1l-8-2h-7v-1h5l4-1h-1v-1h4l4 1h2v-1h-1v-1l-1-1-1-1-1-1-1-1h-1l-1-1q-1-1-6-2l-5-2h-1v-1h-1v-1h-1q0-1-11-9l-11-8h-1l-1-1v-1h-1v-1h-1v-1h-1v-2h2v-1h1v-1h5q5 0 7 0 1 0 1-1t4-1 7 2q2 2 7 3 5 2 7 4 1 1 14 3t16 8q2 6 5 8 3 1 3 4 1 2 2 3 2 1 2 3z" fill="#9b1c31" stroke="#9b1c31"/>
  <path d="m70 380l-1-2 1 1q2 1 2 0t1-1q1 1 2 2 0 1 8 5 7 4 8 5 1 0 3 1h1v1l1 1v1h1v1h1v1t1 0v1h-1q-1-1-6-2l-6-1 2 2q2 3 2 3v1h2v2h-2v-1h-1v-1h-2l-1-1-1-1h-1v-1t-3-2q-2-3-5-8-4-5-5-5t-1-2z" fill="#537a60" stroke="#537a60"/>
  <path d="m435 1037h9l6 1-2 2q-2 2-3 2h-1v2h1l2 1q2 0 2 1t1 1 1 1 3 2q2 0 2 1 1 1 4 2 2 1 4 1h2l4 1 4 1h-44q-45 0-57 0t-56-2q-44-4-65-6l-21-2-3-1-4-1h6l2-1 3-1h82q76 0 81-2 5 0 19-2 14 0 18-1z" fill="#2f272d" stroke="#2f272d"/>
  <path d="m76 814l7-4-2 4q-1 3-5 8t-4 7v2h-2v4h1v-1h2v-1h1v-1h1q1 0 1 1v1t-1 0v1l-1 1q-2 2-1 5 0 3 1 4 0 1 2 1h1v1h-1v1h-2q-1 0-4 0h-3 1v1h-1v1q1 0 1 2v2h-3l-1-1v-1l-1-1-1-1v-1h-1v-1h-1v-1q0-1-1-1 0 0-1-6t5-13q7-8 13-13z" fill="#d4b352" stroke="#d4b352"/>
  <path d="m562 801v-1l14 4q13 4 25 8t16 4q3 1 7 1 4 1 7 2t11 3q7 1 7 2t5 2q6 0 6 2t0 2q1 0 3 1l2 1h3v2h-2v1h-1q0 1-1 1-2 0-3 2t-2 2h-1v2l4 6q2 6 3 8 1 1 2 1t1 1q0 2 5 5t8 5q2 2 7 6 6 4 17 7 11 4 12 4v1h3l1 1 1 1h1l1 1 1 1h-5l-13 1q-13 1-41-1l-27-2h-1l-1-1-1-1h-3v-1h-1q0-1-6-5-5-4-10-6-4-2-4-3t-9-7q-9-5-9-6 1-2-3-6t-6-8q-3-5-5-9t-13-8q-10-3-33-5l-23-2h-9l2-1 2-1h3v-1h1v-1h4q3 0 1-1-2 0-2-1v-1l15-1q15-2 22-3 8-1 6-3-2 0 4-1l5-1h-1v-1q0-1-1-1t-1-1z" fill="#c37630" stroke="#c37630"/>
  <path d="m176 760h8v-1l4 1q3 2 11 3 7 1 8 1v1q0 1 1 1h1l1 1 1 1h2l29 4q29 4 48 6 19 0 32 1h13l21 1q21 2 34 2h13l22 2q22 0 29 1h7v1l21 1q20 1 26 2h8q0-1 0-1v1q1 1 2 1h2l7 2q7 2 18 4t12 2 1 1l2 1h2v1h1v1h1v2h1l-5 1q-6 1-4 1 2 2-6 3-7 1-22 3l-15 1v1q0 1 2 1 2 1-1 1h-4v1h-1v1h-3l-2 1-2 1h3t-36 1-89-1q-54-2-78-4-23-2-56-4t-36-2q-2 0-7-2l-5-3h-2q0-1-3-1t-7-2q-3-2-12-4-10-2-17-3-7-2-7-3t-2-1-2-1-12-3q-13-1-18-4-4-3-7-5-3-3-3-10-2-6-3-10l-2-4v-1h-1v-1h-3v-1l11-1q10 0 30 4 19 4 24 6 6 0 14 0zm300 47q0-1 4-1t4 1 3 0 7-1 2 3q0 3-3 5-2 2-7 1t-8-3q-2-3-2-5z" fill="#b65b33" stroke="#b65b33"/>
  <path d="m75 576l6-3-4 5q-5 5-5 5v1l-1 2-1 1v1l-1 2v2h4v-1q1 0 1 0 0-1 6-1h6l-1 1-1 1-2 2q-2 3-2 4v2l4 2q3 2 4 3l1 1h3v2h1-8l-1-1q-1-1-5-2l-4-1h-3v3h-1l-1-1h-1v1h-1q0-1-3-5-3-5-4-10-1-4 3-8t11-8z" fill="#a4484a" stroke="#a4484a"/>
  <path d="m239 81h-1v2h-1v1h-1v3h1l1-1h1l1 1v1t-5 2q-4 2-7 2-2 0-8 0l-5 1v-1h2v-1h1v-1h1l1-1 1-1h1l6-4q6-4 6-5h1l3-1q2 0 2 1-1 1-1 2z" fill="#87b590" stroke="#87b590"/>
  <path d="m519 439v-1l21 2q21 2 30 3h9q0 1-3 1h-2l-2 1-1 1h-2v1h1v1h2l2 1 3 1h1v1l1 1h-7q-7 0-12-2-5 0-33-4l-28-4 11-1q12-1 10-1-1 0-1-1z" fill="#5b9669" stroke="#5b9669"/>
  <path d="m80 467l4-2v1q0 1-4 4-4 4-5 6l-1 1v1h-2v6h1v1h1v1h1v1h1v1h2q2 1 3 2 1 2 3 2t2 1h-2l-2 1 1 2 1 1v2h-1l-1-1h-1l-3-1q-2-1-2-1l-1 2v3h-1v-1h-1v-1q-1 0-4-5-3-6-3-11t4-9l6-5q0-1 4-2z" fill="#627ca0" stroke="#627ca0"/>
  <path d="m72 693l4-2-5 7q-5 6-6 6v1h-1v5l1 2 1 1v1h1l1 1h2v-1q0-2 3-4l3-2h2l1 1 1 1-1 2q-1 2-1 4v1h1v-1h4v1h1v1l-1 1v1h2v1h1v1q1 2 4 2 2 1 4 4 2 2 12 8 11 4 26 10 16 6 28 8t14 3l2 1h5l1 1h2v1h-8q-8 0-14 0-5-2-24-6-20-4-30-4l-11 1h-1q0-1-7-5t-13-8-12-12-6-13 0-7q2-1 6-5l4-5h1t3-3z" fill="#bb5e3e" stroke="#bb5e3e"/>
  <path d="m204 526h1l32 4q32 4 36 5h4v1h9l6 1q6 1 12 1h5v1h-5l-5 1h-1q-1 0-1 1t-3 1h-10q-8 0-24-2l-15-1h-1q0-1-18-3l-19-4h-4v-2h-1l-1-1-1-1h3v-1h1v-1z" fill="#799ac7" stroke="#799ac7"/>
  <path d="m254 895h8v1h106q103 0 118 0t17-1h9q7 1 12 1 6 1 6 2-1 2 0 2 2 1 2 2 1 0 1 1h1v1h-3l1 1 1 1h5l-4 1q-4 1-13 1t-16 2-7 4q0 1-6 4-4 3-7 4-3 0-3-1t-3-3-39 0h-36v1h-14q-12-1-58-2-47-1-73-3t-51-8q-26-4-37-8l-11-2-2-1-2-1h4q4 0 4-1t3-1 19 1q17 1 40 1 22 0 28 1z" fill="#e6c441" stroke="#e6c441"/>
  <path d="m210 461v-1h3l1 1h1v2l1 1q2 2 0 2h-1l1 4q0 3 1 4l1 1 1 1q1 2 2 2v2h1v2l9 9q8 9 9 10h1q0 1 1 1 0 0 0 1h1q0 1 1 1 0 0 0 1h1q0 1 1 1 0 0 0 1h1q0 1 1 1l10 7q10 7 11 7t1 1h1v1h2l1 1h1v1h2v1h1v1h2q2 2 4 2h1v2h3v1h1v1h-6l-3 1h-7q-4-1-36-5l-32-4-4-1q-4-1-14-3t-35-8q-24-6-36-11l-13-4v-1l-1-1v-1l-1-1v-1h3v-1h-1v-1h-1v-2h2v2q1 1 2 1l1 1h1l2-1q1 0 2-3 2-4 7-4t9-4q3-4 6-7t9-5q5-3 6-4 1-2 25-2 23 0 28 0h6v-1l1-1 1-1z" fill="#335689" stroke="#335689"/>
  <path d="m185 416h2l4-1h4l29 4q30 5 36 5h5v1h-4l-4 1h1l-2 1q-2 1-6 1h-5v1h-7q-7-1-23-3l-16-3h-1l-1-1h-3q-2 0-4-1l-3-1h-3q0-1-1-2t2-2z" fill="#719e76" stroke="#719e76"/>
  <path d="m342 37h7l5 1h3l-1 1q-1 1-2 2l-2 1h-2q-2 0-7 2l-5 1v2h-2v2h-1v1h-3q-4 0-4-1t-8-1h-8v-1h-1v-1h-2l1-1 1-1h3l2-1 1-1 12-2q12-2 13-3z" fill="#b2cbb1" stroke="#b2cbb1"/>
  <path d="m489 378q3-1 3 1 0 3-2 3-3 0-3-2-1-2 2-2z" fill="#609d74" stroke="#609d74"/>
  <path d="m298 540h1l5-1h5l44 2q44 1 44 2h-3q-4 1-6 1t-15 1l-13 1h-14q-13 0-34-2l-21-2h3q3 0 3-1t1-1z" fill="#8eaad0" stroke="#8eaad0"/>
  <path d="m242 381l-1-2 4 3q3 4 13 12 9 8 15 11 7 4 7 4v1h1v1h1v1h2v1h1v1h-1v3h-3v-1h-2l-1-1q-2-1-6-3-3-2-13-9-11-8-13-9l-3-2v-2h2q3-1 3-1v-1l-1-1-1-1v-1h-1v-1h-1t-2-3z" fill="#9abd9c" stroke="#9abd9c"/>
  <path d="m458 547h7l18 2q18 3 21 3h2t2 2q1 0-6 1l-8 1h-6q-4 0-6-1-3-1-26-3l-23-2 10-1q9-1 9-1t6-1z" fill="#95b0d3" stroke="#95b0d3"/>
  <path d="m412 376q2 0 2 2 0 3-2 3-2 1-2-2-1-3 2-3z" fill="#5f9e75" stroke="#5f9e75"/>
  <path d="m431 32h3t3 1l3 1h2v1h-1v1h-1v2h-1l-1 1h-4q-2-1-3-1t-2-2q-1-3 2-4z" fill="#90ae91" stroke="#90ae91"/>
  <path d="m393 656l34 2q35 2 35 2v1t-4 1l-4 1v1h-1l-3 1h-4q-2-1-16-1l-13-1h-12q-12-1-19-1h-6l-2-1-3-1h1l2-1 1-1h3l6-1q5-1 5-1z" fill="#c37f73" stroke="#c37f73"/>
  <path d="m100 1007l-4-3 8 1q9 1 38 8 28 7 38 9 9 2 9 2h-1l-2 1-2 1 1 1v1h2v1h-1v1h-1l1 1 1 1h-1v1h-4v-1h-4l-2-1-1-1h-3q-3 0-18-4t-31-9-16-6-1-1-6-3z" fill="#b8b5ac" stroke="#b8b5ac"/>
  <path d="m216 835h1q0 1 1 1l11 11q11 11 18 16t7 5v1h1v1h2l1 1v2h1v1h1v2h-1l-2-1-2-1h-2l-1-1q-1-1-8-4-6-3-18-16l-12-12-1-1-1-2v-2l-1-2q0-2 2-1t3 2z" fill="#f3d980" stroke="#f3d980"/>
  <path d="m275 636v-1l5 2q5 1 6 2l1 1h1l1 1 1 1 1 1 1 1v1h1v1h-2l-4-1h-5l-1-1h-1l-2-1-1-1h-1q-1 0-3-2l-2-1h2l2-1h1v-1l-1-1z" fill="#c06a63" stroke="#c06a63"/>
  <path d="m100 879v-1h2q1 0 2 0 0 0 0 1h1l3 2q4 1 24 7 21 6 22 6h2l2 1 2 1 11 2q11 4 37 8 25 6 51 8t73 3q46 1 58 2h13v1h2l-1 1-2 1h6v1h-1v1l12 1q13 2 13 3 0 2 6 3t11 1h5v1h1v1h1t-2 1l-3 1h5l2 1 3 1h-26q-3 0-9 1t-58 1q-51 0-99 1t-57 1q-10 0-14-2-4-3-6-4-3-2-3-1t-1 1q-2 0-2 1t-4 2q-5 1-16 3-12 0-17 2t-15 12q-9 8-20 9t-16-3q-6-2-11-3t-6 1l-1 1h-1v1h-1v1h-1v1h-1v-7l1-1 1-2v-2q1 0 2-2 0-1 4-4 4-4 4-5t5-4q4-3 5-7v-10q0-7 1-24l1-16v-1z" fill="#bfb299" stroke="#bfb299"/>
  <path d="m408 637h26q27 1 35 2t11 1h4v1h1v1h1v5h-1v1h-4q-4 0-22 0t-39-1l-20-1-2-1-2-1 5-1q5-1 6-3t1-2v-1z" fill="#a63d3e" stroke="#a63d3e"/>
  <path d="m498 94v-2l8 1q9 1 24 6 16 5 16 5h1l-1 1-2 1h-1v-1h-1q0 1-1 1t-1 1v1h1v1h1v1h1v1h1v2q-1-1-20-8l-20-7v-1h-1v-1h-2l-1-1h-2v-1z" fill="#72a77f" stroke="#72a77f"/>
  <path d="m347 88h1q0 1-2 2t-2 2-2 2q-1 0-1 2-1 2-2 3l-2 1-1 1-1 1h-1v1l1 1v2l5 1q4 1 5 2t5 1h3l3 1 2 1h-1l-1 1-1 1h-1l-1 1-1 1-10 5q-9 5-14 13-6 8-8 14t-1 13 7 15q6 9 15 12 10 4 15 10 4 6 16 10 11 6 25 8t27 0q13 0 15-1h2v1h2v2l14-1q14-1 24-5t20-4 11 1l1 1h1v1h1v1h1v1l1 2v2h-1v-2h-1v-1h-1v-1h-1v-1h-1l-1-1q-1-1-9 0-9 1-12 2-2 1-8 3-5 2-8 4t-22 4q-18 4-34 4-15 0-26 0-12-2-34-8-23-6-32-7-9 0-9 1-1 1-2 2-1 0-3 0h-1v-1h-1q0-1 0-1h-1q-1-1-1-1v-1q0-1-6-10-4-10-12-26t-11-19-7-3q-5 0-12 5-6 5-12 12t-14 20l-8 13h-1v1h-1v2h-1v1h-1v1l-1-1-1-1v-1h-1v1h-1v-2h1v-1h1v-3l10-15q9-16 18-26t10-11q1 0 2-2 1-3-1-3-1-1 0-6 1-4 5-9 3-5 16-13 14-8 29-14t26-10 12-4z" fill="#b0cbac" stroke="#b0cbac"/>
  <path d="m435 31h1q0 1-1 1h-4q-3 1-2 4 1 2 2 2t3 1h3v1q0 1-5 2h-6v1h-8q-7 1-34 1-26 0-29-1l-3-1 2-1q1-1 2-2l1-1h-3l-5-1h-5v-1h5l22-4q22-2 41-2 18 0 20 0t3 1zm-78 11t0-1q1 0 1 1 0 0-1 0zm-2 1q0-1 0-1 1 0 1 0 0 1-1 1z" fill="#c2d7bf" stroke="#c2d7bf"/>
  <path d="m438 73h12l4 2q4 1 2 2h-2l-1 1q-1 0 0 0 0 0 1 1v1t-1 2 0 2-1 2q-1 2-2 4t-8 4l-8 2-2 1-2 1h-2v2h5l6 2q6 2 15 8 9 8 16 12t12 9q6 5 12 9 5 4 8 9 4 5 6 13 2 9 2 14t-1 7-2 2-1 1-9 7q-9 7-20 11-11 6-16 6-5 2-9 2h-4l-2 1-1 1h-3v1h-3q-2 1-15 1-13 2-27 0t-25-8q-12-4-16-10-5-6-15-10-9-3-15-12-6-8-7-15t1-13 8-14q5-8 14-13l10-5 1-1 1-1h1l1-1 1-1h1l-2-1-3-1h-3q-4 0-5-1t-5-2l-5-1v-2l-1-1v-1h1l1-1 1-1 2-1q1-1 2-3 0-2 1-2 2-1 2-2t2-2 2-2l14-4q13-4 30-6 17-4 25-4t21-1z" fill="#c1d6bc" stroke="#c1d6bc"/>
  <path d="m228 474l2 1v2h1v1h1l8 10q8 9 12 14 4 4 5 4v1h-1q-1-1-7-6-5-5-8-6-2-1-2 0l-1 2h1v1h1v1h1v1l1 1q2 1 2 1v1h1v1h1v1h1v1h1v2h-2v-1h-1v-1h-1v-1h-1v-1h-1v-1h-1v-1q-1 0-9-10l-10-10v-2h-1v-1h1v-1l1 1v1h2q2 0 1-2 0-3 0-4 0-2 2 0z" fill="#7c8bad" stroke="#7c8bad"/>
  <path d="m596 441h18l14 1h2v2l-2 1-1 1h-5l-8 1q-8 1-9 1t-1 3q0 2-11 1h-14l-1-1v-1h-1l-3-1-2-1h-2v-1h-1v-1h2l1-1 2-1h2q3 0 3-1l6-1q6 0 11-1z" fill="#97be98" stroke="#97be98"/>
  <path d="m577 574h9l1 1 1 1 9 2q9 4 41 14 31 12 58 20 26 8 36 9 10 2 10 3t1 2v8q1 8 5 12t5 5 2 1h1t0 1h1l2 2q2 3 2 3h1l9 8q9 8 10 12t3 4 4 1h2v2h-1v1h-1t0 1l1 2v2h-1l-1 1h-1t-2 1-2 2-2 1q-1 0-1 2 0 1-5 1-5-1-16-2-11-2-11-3t-8-2-8-2-2 0q-2 0-2-1t-10-2-20-4-28-7q-18-6-27-10-8-4-18-8t-19-10-20-13-13-9q-3-1-3 2v2h-1q-1 0-5-3t-11-4-7-2-17-1-24 1q-6 1-15 0t-15-4-26-6l-20-3v-1t2-1q0-2-1-3l-1-1v-1h1v-1h-2l-1 1q-1 0-1 1-1 1-10 1-10 1-11-1-1-1-4-1-3 1-9 1t-6-1q-1-1-6-3-6-2-17-3-10-2-10-3l-1-2h-1l-2-1-2-1h-3v-1h1v-1h1l1-1 2-1 9 1q9 1 17 1 7 0 55-2t48-3h5q5 1 8 3 2 2 2 3t2 2 8 0 10-6q5-6 32-7 27-2 33-2z" fill="#6c192e" stroke="#6c192e"/>
  <path d="m195 639v-1l17 2q16 2 32 4 17 2 20 3h2v1h-12v2h-1v1h-4q-4-1-26-3l-22-4h-2l-1-1-1-1h-1v-1h-1v-1h1v-1h-1z" fill="#b24547" stroke="#b24547"/>
  <path d="m245 539l15 1q16 2 24 2h7l21 2q21 2 34 2h14l35 2q35 2 37 2h1l23 2q23 2 26 3 2 1 6 1h5l3 1 3 1h10q10 2 13 2h2l2 1 3 1h4v1h-5q-5 1-14 1-8 0-8 1t-2 1-56 2l-55 1h-5q-5-1-13-1t-48-5q-41-4-50-5-10-2-27-4l-16-4h-5v-1l-1-1v-1h-1v-1h4l1-1 2-1h6v-1t2-1l4-2h-1t0-1z" fill="#3e5d90" stroke="#3e5d90"/>
  <path d="m758 404v-3l2 3q3 2 10 6 7 2 8 3h1q0 1 1 1l6 5q5 5 8 7 4 2 6 3h1l1 1q1 2 1 2h1l8 4q7 4 8 5l1 1h1q1 0 4 1h3l3 3q4 2 4 3t7 7q7 7 9 12 0 6-1 12-1 7-2 7v1h-1v2h-1v1h-1v1h-1v1h-1v1h-2v-2h1v-1h1v-1h1t1-4l1-3h-2v1l-1 1v1h-2l-1 1q-1 1-1 1-1 0-6 3-4 2-13 4-8 1-31 2l-22 1-6-1q-6-1-10-1-4-2-41-11t-48-11-15-3-5 0-3 1h-4q-2 0-8-2l-6-2q0-1-1-1h-1q0-1-15-5l-15-5v-1h-3v-2h-3l-1-1-1-1h11q11 1 11-1 0-3 1-3t9-1l8-1h5l1-1 2-1v-2h-2l-14-1h-14v-1h3v-1h1v-1h6q6-1 6-2 0-2 14-5t43-5 40-4q11-3 11-4t10-3 10-3q0-2 4-2 4 1 4 0 1-2 2 0 0 1 1 1 1 1 3 1h2v-3h-1v-1h-1v-4z" fill="#549366" stroke="#549366"/>
  <path d="m462 661l12 1q13 2 16 2h2l2 1 2 1h1q1 0 4 1l3 1h-6q-5 0-10 1h-9q-5-1-19-2l-13-1v-1h3l3-1h1v-1l4-1q4-1 4-1z" fill="#c68078" stroke="#c68078"/>
  <path d="m284 412l7 3q7 3 8 3h1l1 1 1 1h2v1l1 1v2h-12v-1h-1v-1h-3l-1-1-1-1q-1 0-4-1l-3-1v-2h1q1 0 2 1h1v-3h1v-1h-1v-1z" fill="#699c74" stroke="#699c74"/>
  <path d="m473 1028l3-3h10q10 1 20 1h9t-7 2q-6 0-8 4-2 3-5 6-3 2-7 3t-9-3l-5-4-2-1h-3v-1h-1v-1h1v-1q1 0 4-2z" fill="#aeaaa3" stroke="#aeaaa3"/>
  <path d="m688 933l-4 3q-4 2-4 5t-6 8q-4 5-4 9t3 7 4 4q0 1 2 2t3 1h1l1 1 1 1h3v2h-7l-5 1q-5 1-22 1l-18 1-1-1h-3l-1-1q-1-1-3-1-3-2-14-8-12-6-29-14t-27-10q-9-2-37 0t-57 0l-28-2h12v-1h1v-1h-8l-1-1-2-1h23l-3-1-2-1h-5l3-1q2-1 2-1h-1v-1h-1v-1h-5q-5 0-11-1t-6-3q0-1-13-3l-12-1v-1h1v-1h-6l2-1 1-1h-2v-1h1v-1h36q36-2 39 0t3 3 3 1q3-1 7-4 6-3 6-4 0-2 7-4t16-2 13-1l4-1h22q21 0 70 12 48 12 53 14 5 0 5 1z" fill="#ccb88e" stroke="#ccb88e"/>
  <path d="m508 53l3 1q3 1 12 5 9 3 11 4l2 1h2v2h5v2h-5l-2-1q-3-1-7-2-5-1-11-3-7-2-28-6-22-4-34-5l-13-1-1-1-1-1h-2v-1h5q4 0 7-1 2 0 2 1t17 1 27 2 11 3z" fill="#92b994" stroke="#92b994"/>
  <path d="m506 552l16 2q17 2 26 4t14 3h5v1h2l3 1 2 1 4 1q5 1 7 2l2 1h1l2 1 2 1h-4l1 1 1 1h-3v1h1v1h-5t-1-1h-2v-1h-3l-1-1-2-1h-2q-1 0-20-4l-19-3v-1h-4l-3-1-2-1h-2q-3 0-13-2h-10l-3-1-3-1h1l8-1q7-1 6-1-2-2-2-2z" fill="#5b86bb" stroke="#5b86bb"/>
  <path d="m674 524l-2-4 7 4q7 4 11 7t6 4 2 3q1 2 8 5 8 3 10 4t10 3q9 2 18 3 10 1 13 1t4 0h2v1h1v1h3v-1h1v-1l-1-1-1-1v-1h-1v-1h-1v-1q0-1-3-3l-2-2v-1h-1v-1h-1v-1h-1v-1l-1-2v-2h1v1h1v1h1v1h1v1h1l5 4q5 2 21 10 15 8 16 8h1t1 1v1t1 0v1h1v1h1v1q1 0 1 0v1h1v1h1v1h-1v1h1v1l-1 2-1 1v1h-2q-1 0-2 1 0 0-3 2-3 3-17 3-13 0-26-2l-12-2-2-1-2-1h-1l-1-1-1-1h-1l-2-1q-1-1-4-2t-11-5-21-10l-14-7v-1h2v-1h-1v-1h-1v-2l-1-2v-1h-1q-1 0-3-4-3-4-4-7l-1-2h-1t-1-4z" fill="#2d3751" stroke="#2d3751"/>
  <path d="m88 396l-2-2 6 1q5 1 6 2h1l27 8q28 9 40 11 13 4 16 4h5l3 1q2 1 4 1h3l1 1h1v1h-1v1h-1v1h1v3h-1v1h-1v1l1 1 1 1v1h-3q-2 0-15-2-14-2-36-8l-21-6t-1-1-6-1q-6 0-7-2l-1-2v-1q0-1-8-5l-8-4v-1h-1v-1q-1 0-1 0v-1t-2-3z" fill="#314e44" stroke="#314e44"/>
  <path d="m756 653v-1l19 9q19 9 22 11t3 2v1h1v1l1 1q0 1-1 3-1 0-2 0h-1v1l1 1v1h-1l-1 1h-3q-2 0-3-1h-3q-2-1-4-1t-3-4-10-12l-9-8h-1t-3-2q-2-2-2-3z" fill="#784a4d" stroke="#784a4d"/>
  <path d="m820 1012h1l-1 2q-2 2 0 2 1 0 2 0h1v1q0 1-5 3t-20 7l-14 5h-4v-1h-1v-1h-4v-1h1l2-1h2l1-1 1-1h4q4-2 12-5t12-5q4-1 6-2 2-2 4-2z" fill="#cfcdca" stroke="#cfcdca"/>
  <path d="m132 520l1-2 33 6q32 6 34 7h3v1h4l19 4q18 2 18 3h1q0 1 0 1h1l-4 2q-2 1-2 1v1h-6l-2 1-1 1h-4v1h1v1l1 1v1h-3q-2 0-17-3t-47-11l-33-8h3v-2h-1v-1h1v-1h1t-1-1-1-1q1-1 1-2z" fill="#3c507f" stroke="#3c507f"/>
  <path d="m234 733l-2-3h1q1 0 5 4 3 4 12 11t10 7 0 1h1q0 1 1 1l1 1q1 1 1 2v1h-6l-1-1-1-1h-1q-1 0-3-2-3-2-8-6l-6-5v-1q0-1 0-3v-2h-1q0-1-3-4z" fill="#d99976" stroke="#d99976"/>
  <path d="m799 845h1v1q-1 2-1 2h1l1 1 1 1h1l9 6q8 5 9 6 0 1 4 4 5 4 7 8 4 5 4 6v2l-1 2-1 3v3h-5q-5 0-15 2-10 0-26 1l-17 1v-1h1l2-1h6l3-1q3-1 5-1t4-2q1-2 5-4t6-5q3-3 3-6t0-5q-2-2-4-6-4-5-7-7l-3-2v-2l1-1 1-2v-1q1-1 1-1l1 1q1 1 2-1 0-1 1-1z" fill="#b38e51" stroke="#b38e51"/>
  <path d="m511 211l1 1h1v1h1v1h1v1h1v2h1l1 2q0 2 0 3v2h-1v1h1v2h1v-1h2l1-1 1-1h1l4-4q4-4 5-5h1v1q0 1-1 1v1h-1v1h-1v1h-1v1h-1v1h-1t-10 14l-10 13q-1 1-1 1h-1t0 1q-1 1-1 1h-1t0 1q-1 1-1 1h-1t0 1q-1 1-1 1l-1 1v1h-1v1h-1v2h-1v1h-1v1h-2q-1 1-14-1-13 0-50-1-38-1-44 1-6 0-25 2-19 0-22-4t-10-12q-7-10-13-21l-6-11h-1v-1h-1v-2h2v2h1v1h1q2 0 3 0 1-1 2-2 0-1 9-1 9 1 32 7 22 6 34 8 11 0 26 0 16 0 34-4 19-2 22-4t8-4q6-2 8-3 3-1 12-2 8-1 9 0z" fill="#9cba94" stroke="#9cba94"/>
  <path d="m203 282l1-1h2v3l2 16q2 16 4 22 2 5 2 6v1h-1q-1 0-1-1t-1-2q-1 0-2 4v5h-1v-2l-1-2-1-2v-1q0-2-2-6 0-4-1-22l-1-18h1z" fill="#8ab48a" stroke="#8ab48a"/>
  <path d="m106 328l1-8v15q1 15 1 17v2l-1 4v4h-2v-1h-1v-1h-2v-1t-1-3q0-4-5-3l-5 1h-1v1h-1v-2h1q0-1 0-1 1 0 6-4 6-2 7-8 1-5 3-12z" fill="#6a806f" stroke="#6a806f"/>
  <path d="m120 420v-2h3l21 6q22 6 36 8 13 2 15 2h2l73 10q72 8 100 11 29 3 36 3t60 0h52l-2 1-3 1h-1v4h-1l-1 1q-1 0-1 1v2h-3q-3 0-4-2-2-2-3-1-2 1-3 2 0 1-2 2-1 1-42 1t-60 2q-18 0-16 1 1 1-2 1-2 0-39 1h-39q-2-1-18-2-15-1-30-1-16 0-16 1t-1 1l-1-1q-1-1-4-5-3-5-4-5t-1-1q-1-1-2-2-1 0-1 1t-2 1l-1 1v-3h-1v-1h-1v-1h-1v-1h-1v-1h-1l-1-1q-1-1-3 0-2 0-2-1t-2-2q-3 0-3-1t-4-2q-5-1-12-4-8-3-23-7-16-3-17-5t-5-3q-5 0-9-3l-4-3q-1 0-3-2t-2-2z" fill="#1f2536" stroke="#1f2536"/>
  <path d="m174 140l1 1h1l1 3q1 4 1 7t1 5q2 2 3 3 2 0 2 1 1 2 2 2 2 0 2 2t1 3 1 5 1 5v1t1 3 0 3-1-2q-1-1-3-4l-2-3-1 1q-1 1-1 3t-2 0-2-1-1 0h-1v3q-1 3-2 3-2-1-2 1-1 3-1 10 1 8 3 16 2 9 7 18t10 19 4 21-1 24q-2 13-2 15-2 3-2 6v3l1 1v2h-1v-1h-1v-1h-1v-1h-1v-1h-1v-1l-1-3q-1-2-1-19t-2-22-6-14q-5-9-10-16-4-7-6-8t-3-2q-1-2-3-4-3-2-3-3-1-1-3-1-2-1-6 3-4 2-8 8l-4 6-1 1-1 1h-1v1h-1v1l-1 1v1h-2v-1l1-1v-1l1-1 1-2v-2q0-1 2-5t4-13q2-10 6-25t11-28 11-19l4-5t1-1h1t0-1l3-1q2-2 2-1 1 1 1 1z" fill="#468359" stroke="#468359"/>
  <path d="m737 737v-1h2q2 0 4 1h2l12 1q12 0 28 1h16q0 1-22 1l-22 2h1l3 1h3v2l6 3q6 3 13 7 8 5 20 13 11 9 12 10v2l-1 3v2h-1l-1 1h-1v1h-1v4h-1l-1 1h-8v-1h-1v-1h-1v-1h-1v-1q-1 0-1-1t-8-6-14-8q-6-4-17-10-10-7-14-9t-5-7l-2-5v-5h1z" fill="#8a5954" stroke="#8a5954"/>
  <path d="m624 106l2-1 13 12q13 12 22 23 9 12 12 16 2 4 3 4t11 18q9 17 13 27t4 16v6l1 1v1h-2v-1l-1-1v-1h-1v-2h-1v-1h-1v-1l-1-1v-1l-1-1-1-1v-1t-3-3-7-4q-4-2-5-5t-2-3q-2 0-3-2l-2-2v-1h-1v-1h-1l-1-1-1-1-1 2-1 1q0 1-3 7t-5 6-7 5-13 9q-8 2-15 8l-7 4-2 1-1 1h-2l-1-1-1-1h2l1-1q1-1 2-1h2-6q-1 0-4 2h-6 1l1-1q1 0 1-1t-1-1l-2 1h-3q-3 0-7 1-5 1-5 0t1-1q-2 0-10 3l-9 3-1 1-1 1h-5 2v-1h1v-1h2v-1h1v-1h2-7l-1 1-1 1h-1q-1 0-10 5-8 5-15 7t-15 3q-7 2-7 1t-5 1l-5 1v1h-1v1h-2v1h-1v1h-1l-1 1h-1v-1h1v-1h1v-2h1v-1h1v-1l1-1h1v-1t1-1q1 0 1 0v-1t1-1q1 0 1 0v-1t1-1q1 0 1 0v-1l6-6q7-5 11-8 5-2 8-5 3-2 4-4t4-2q3-1 9-6 6-4 15-9t17-11q7-6 17-12t14-10q3-4 3-9t-2-8-4-9q0-6-1-6 0 0 0-1h-1v-4h2l1 1 1 1q0 1 1 0t1-3 4 0 7 1l3-1h-1q-1 0-2-2l-1-2h-1 5l2 1q1 0 1 1t3 3q3 1 4 2l1 1h1v1h1v1h3v1h1v1h1v-3l-1-1-1-1v-2h-1v-1h-1v-1t-3-2-3-3-3-3q-2-3-3-6-2-3-1-5 1-3-1-4-1 0-1-2l-1-1q0-1-2-2-2-2 0-3z" fill="#519062" stroke="#519062"/>
  <path d="m80 689l4-2h1v1l3-1q2 0 4 6t3 7q1 2 2 2v1q0 1 1 1v1q1 1-1 0-1 0-1 3 1 2 0 3-2 1-2-1 0-1-1 0-1 0-1 2-1 3-2 4-2 0-4 1l-1 1h-1v-1h-1v-1h-4v1h-1v-1q0-2 1-4l1-2-1-1-1-1h-2l-3 2q-3 2-3 4v1h-2l-1-1h-1v-1l-1-1-1-2v-5h1v-1q1 0 5-6l4-5q1-1 1-1h1t0-1q1-1 4-2z" fill="#993133" stroke="#993133"/>
  <path d="m513 44l21 7q20 7 32 13t13 7l1 1h1v1h1v1h-2v6h-6t-5-2q-4-2-10-4t-7-3q0-1-4-3l-5-1h-1q0-1-2-1h-2v-2h-2l-2-1q-2-1-11-4-9-4-12-5l-3-1v-1h5v-1h-1v-1l-1-1q-1-1-1-2t1-1q1-1 2-2z" fill="#a2c3a3" stroke="#a2c3a3"/>
  <path d="m736 1033h6v1h10l-2 1q-1 1-2 1l-1 1q-1 0-2 1h-2l-19 1h-18v-1h-2l-6-1-7-1h-7l-1-1-1-1h24q23 0 30-1z" fill="#9e9a97" stroke="#9e9a97"/>
  <path d="m470 1021h11v1h-3l-2 1h-1v1l1 1-3 3q-3 2-4 2v1h-1v1h1v1q-1 0-15 2l-15 1v1h-4q-4 1-18 1-14 2-19 2-5 2-81 2h-76l-5-1-4-1h-2q-2 0-9-1t-21-3l-14-3v-1h1l-1-1-1-1h1v-1h1v-1h-2v-1l-1-1 2-1 2-1h1l20 2q20 2 60 0t73-4 69-3 38 0q3 1 6 2 4 1 15 0z" fill="#d8d5cc" stroke="#d8d5cc"/>
  <path d="m816 928h1l1 2q0 1 1 1h1q0 1 0 1h1t1 1l7 9q7 8 8 11t1 3v4q0 4-6 8t-16 8l-10 4-2 1h-3v-1h2l1-1h1v-1l-1-1v-3t1-2l1-2q1 0 1-1h1q0-1 3-3t5-7q2-4 2-11 0-8-3-12l-3-5 2-1q1-2 2-2z" fill="#c6bdb1" stroke="#c6bdb1"/>
  <path d="m620 470l1-3 7 2q6 3 8 3h2t1 1l1 1h2l2 1 1 1 30 9q30 9 38 11t21 5q13 2 13 3l1 1v4h1v1h1v1h1l2 12q1 12 2 13v2l1 2v1h1v1h1v1h1v1l2 2q3 2 3 3v1h1v1h1v1l1 1 1 1v1h-1v1h-3v-1h-1v-1h-2q-1 0-4 0t-13-1q-9-1-18-3-8-2-10-3t-10-4q-7-3-8-5 0-2-4-4t-7-4q-3-3-7-4l-4-2q0-1-1-1v-1q-1 0-1 0 0-1-1-1v-1q-1 0-1 0-1 0-4-3-4-3-4-4t-2-2-3-3-2-3q-2-1-5-2-2-2-16-10-13-8-13-9-1-1-3-3l-3-2v-1l-1-1v-3h2q2 0 2-4z" fill="#171724" stroke="#171724"/>
  <path d="m630 776l6 2q5 1 5 2t25 7q24 7 52 11 29 6 44 6 16 2 20-1t8-3q4-2 5-2 1-2 2-2h1v-1l1-1 1-2h8l1-1h1v-4h1v-1h1l1-1h1v-2l1-3v-2h1v1h1v1h1v1l4 3q4 2 5 3 0 1 1 1t4 7q4 7 3 17t-4 14q-3 5-10 10-8 4-12 6t-6 2h-2l-1 1t-1 1q-1 0-1 1-1 1-2 0l-1-1q-1 0-1 0v1h-1l-1 1h-7q-7 0-17 0-9 0-22-1t-13-2-11-2-24-4-22-4l-8-1v-2h-3l-2-1q-2-1-3-1 0 0 0-2t-6-2q-5-1-5-2t-7-2q-8-2-11-3t-7-2q-4 0-7-1-4 0-19-6-15-4-25-7l-10-2v-1q-1 0-1 0h-2l-2-1q-1-1-1-1-1 0-12-2t-18-4l-7-2h-3l-1-1h-1v-1l1-1v-1h20q15 0 22 0 6-2 8-2 2-2 29-2 27-2 27-2t1 0l1 1h1v-2h4v-1l1-1v-1z" fill="#bd5b34" stroke="#bd5b34"/>
  <path d="m436 47h3v1h2l1 1 1 1 13 1q12 1 34 5 21 4 28 6 6 2 11 3 4 1 7 2l2 1h1l1-1h2v1t1 0v-1l5 1q4 2 4 3 1 1 7 3t10 4q5 2 5 2h6v-6h2l12 8q12 7 22 14 10 8 10 8v1l-2 1q-2 1 0 3 2 1 2 2l1 1q0 2 1 2 2 1 1 4-1 2 1 5 1 3 3 6 3 2 3 3t3 3 3 2v1h1v1h1v2l1 1 1 1v3h-1v-1h-1v-1h-3v-1h-1v-1h-1l-1-1q-1-1-4-2-3-2-3-3t-1-1l-2-1h-5 1l1 2q1 2 2 2h1l-3 1q-3 1-7-1t-4 0-1 3-1 0l-1-1-1-1h-2v4h1q0 1 0 1 1 0 1 6 2 6 4 9t2 8-3 9q-4 4-14 10t-17 12q-8 6-17 11t-15 9q-6 5-9 6-3 0-4 2t-4 4q-3 3-8 5-4 3-11 9l-6 6v1h-1v1h-1v1h-1v1h-1v1h-1v1h-2v-1l1-1v-1h1v-1h1v-1h1v-1h1v-1l10-11q10-12 11-14t1-2h1v-1h1v-1l1-1v-1q1 0 1 0v-1t1-1q1 0 1 0v-1l14-19q14-20 14-20v-1t1-1q1 0 1 0v-1l5-5q5-6 6-8 1-3 2-4v-2h1v-1h1v-1h1v-8q0-4 0-6-2-2-5-5-4-3-4-4-1-1-4-3-4-2-7-4l-4-2q0-1-1-1h-1q0-1-5-3l-5-3v-2h-1v-1h-1v-1h-1v-1h-1v-4h2v1h1v1h1l2-1 1-1h1l5 2q5 2 7 2h1v1h1v1h5v-2l-1-2v-1h-1v-1h-3v-1h-1v-1h-1q-1 0-5-2t-23-7q-18-5-33-8l-15-3q0-1-3-2-2-1-3-3 0-2-14-3l-14-1h-12q-13 1-21 1t-25 4q-17 2-30 6l-14 4h-1q-1 0-12 4t-26 10-29 14q-13 8-16 13-4 5-5 9-1 5 0 6 2 0 1 3-1 2-2 2-1 1-10 11t-18 26l-10 15v3h-1v1h-1v2l-2 3q-2 4-3 6l-1 1v1h-1v-2l-1-1v-1h-3v-1q-1 0-1-1-1 0-3-3-3-2-5-12t-4-15l-3-4v-1q-1-1-1-5t-1-5-1-3-2-2q-1 0-2-2 0-1-2-1-1-1-3-3-1-2-1-5t-1-7l-1-3h-1l-1-1h-2q-1 0-2 0l-2 1v2h-2v-2h1v-1h1v-1h1v-1h1l7-9q7-9 19-19 11-12 14-14 4-2 4-3h1l5-1q6 0 8 0 3 0 7-2 5-2 5-2v-1h1l1-1 14-6q15-8 40-16 26-8 32-10 5-2 6-2h2l48-2q49-2 52-3z" fill="#609c6f" stroke="#609c6f"/>
  <path d="m95 672l1-11h1l1 9q0 8 2 8 1 0 1 2l1 2v5h1l-1 3q0 3 0 9t-1 6q-1-1-2-1h-1q0-1-1-1v-1q-1 0-2-2-1-1-3-7t-4-6l-3 1v-1h-1v-1h1v-1h1v-1h2q2 0 4-1 1-1 3-11z" fill="#9e5a50" stroke="#9e5a50"/>
  <path d="m199 423l16 3q16 2 23 3h8l1 1h7l26 2q25 2 31 3h11q5 1 38 1h32l24 2q24 0 32 1h12l4 1h12q12 2 18 2h5l28 4q28 4 33 4 5 2 12 2h10l1 1 1 1h3v2h3v1h-18q-17 1-36 1h-70q-53 0-60 0t-36-3q-28-3-100-11l-73-10h1v-1l-1-1-1-1v-1h1v-1h1v-3h-1v-1h1v-1h1v-1z" fill="#325e48" stroke="#325e48"/>
  <path d="m277 522v-1l5 2q5 3 8 3 2 2 4 2h2l1 1 1 1h1v1h1v3h-4q-4 0-6-1l-2-1h-3v-2h-1q-2 0-4-2h-2v-1h-1v-1h-2v-1h3l2-1h-1l-1-1q-1 0-1-1z" fill="#6e8fbc" stroke="#6e8fbc"/>
  <path d="m688 975l16 2q15 1 19 2h4v1l23 1q22 1 27 3t5 2h-1q-1 0-9 2-9 2-34 2-24 0-52-1-29-1-36-3l-7-2-1-1-1-1h-3v-1h-1v-1h-1v-1l18-1q17 0 22-1l5-1h7v-1z" fill="#d7c29b" stroke="#d7c29b"/>
  <path d="m187 312l1 3v1h1v1h1v1h1v1h1v1h1l3 9q2 9 6 17 5 6 6 6l1-2 1-1v2h1v1h1v-1h1v1h1t0 1h1q0 1 1 1l5 8q5 8 7 12 2 3 3 3t5 5 5 5v1h1v1l1 1t1 1l11 9q11 8 16 12 5 2 7 3l1 1h1t0 1h1l3 1q2 2 3 2l1 1 1 1h3v1h1v1h1l-2 1-3 1h-11q-8 0-10-1h-3v-1h-5q-6 0-36-5l-29-4v-1h-8l-2-1q-2-1-25-6t-23-6-15-5l-14-4q0-1-1-1v-1q0-1-2-2-3-2-3-14l-1-12h-4q-2 0-5 0l-4 1v1h-3v-2l1-2v-1l1-1 1-1v-1h1v-1h1v-1h1l5-1q5-1 5 3 1 3 1 3v1h2v1h1v1h2v-4l1-4v-2q0-2-1-17v-18q1-3 3-16t9-34l6-21h1t0-1q1-1 1-1h1v-1h1v-1h1l1-1 1-1 4-6q4-6 8-8 4-4 6-3 2 0 3 1 0 1 3 3 2 2 3 4 1 1 3 2t6 8q5 7 10 16 4 9 6 14t2 22 1 19z" fill="#316e4c" stroke="#316e4c"/>
  <path d="m230 596v2h1v1h1v1h1l1 1h1q0 1 1 1l4 4q4 4 4 5h1v1h1v1h1v1h1q1 0 1 1v1h-1q-1 0-6-4t-6-3 2 3l2 3v1l2 2q2 2 3 3v1h-2v-1h-1v-1h-1v-1h-1v-1h-1v-1h-1v-1h-1t-5-6l-5-4v-2q-1-1 0-5 0-4 1-4t2 1z" fill="#c7867d" stroke="#c7867d"/>
  <path d="m247 615h1q0 1 0 1h2l11 8q11 8 11 9h1v1h1v1h1v1l1 1v1h-1l-2 1h-3v-1h-2v-1h-1v-1h-1q-2 0-4-2-1 0-9-6l-8-6q-1-1-1-1v-1t-1 0v-1q-1-1-1-2l-2-1v-1l-2-3q-2-3-2-3 1-1 6 3 4 2 5 3z" fill="#d59d92" stroke="#d59d92"/>
  <path d="m230 473v2l-2-1q-2-2-2 0 0 1 0 4 1 2-1 2h-2v-1l-1-1v1h-1v-1q-1 0-2-2l-1-1-1-1q-1-1-1-4l-1-4h1q2 0 0-2l-1-1 1-1q2 0 2-1t1-1q1 1 2 2 0 1 1 1t4 5q3 4 4 5z" fill="#5e6382" stroke="#5e6382"/>
  <path d="m0 558v-558h896v1117h-896v-559zm435-527h1l15 1q15 0 31 4 17 4 23 6t7 2h1l21 7q20 7 32 13t13 7l1 1h1v1h1v1l12 8q12 7 22 14 10 8 10 8v1l13 12q13 12 22 23 9 12 12 16 2 4 3 4t11 18q9 17 13 27t4 17v6t1 0v1l7 16q8 16 25 74t19 67q2 10 2 12v3l2 3q3 2 10 6 7 2 8 3h1q1 0 1 1l6 2q7 2 11 5 3 2 4 3l7 4q8 4 14 9t7 5v1l3 3q4 2 4 3t7 7q7 7 9 12 0 6-1 12-1 7-2 7v1h-1t0 1h-1v1q-1 0-1 0 0 1-1 1v1q-1 0-1 0 0 1-1 1v1q-1 0-1 0-1 0-8 4-8 4-16 6-7 2-26 2-20 0-31-1l-11-1v5l1 1v1l2 12q1 12 2 13h1v1h1v1h1v1h1v1h1l5 4q5 2 21 10 15 8 16 8h1q1 0 1 0v1h1l1 1h1v1h1v1h2v1h1q0 1 1 1t13 8 15 13q2 4 2 15 0 10-7 14t-17 7q-9 3-29 3t-33-1l-12-1h-1v8q1 8 5 12t5 5 2 1h1t1 0v1l19 8q18 9 21 11t3 2h3l12 8q11 7 17 12 4 5 6 8 0 2 0 10 0 9-5 14-4 4-17 8-12 4-14 5h-1q0 1-22 1l-22 2h1l3 1h3v2l6 3q6 3 13 7 8 5 20 13 11 9 12 10h1v1h1v1h1v1l4 3q4 2 5 3 0 1 1 1t4 7q4 7 3 17t-4 14q-3 5-10 10-8 4-12 6t-6 2h-2l-1 1v1h-1v1l1 1 1 1 1 1h1l9 6q8 5 9 6 0 1 4 4 5 4 7 8 4 5 4 6v15q0 13-1 14v1l-3 4q-2 5-5 8-3 4-5 5t-2 3v1t1 1q1 0 1 0v1l7 9q7 8 8 11t1 3v1l3 9q3 10 3 18-2 9-4 15t-2 6q0 1 0 1h-1t-3 2q-2 2-2 3t-4 3l-5 2t-1 1q0 1-4 3-5 2-20 7l-14 5h-2t-8 2q-7 0-17 2l-10 1q-1 0-2 1h-2l-19 1h-20l-3 1h-13q-13 0-56 2-44 2-66 5-21 3-56 6l-36 3h-44q-45 0-57 0t-56-2q-44-4-65-6l-21-2-3-1-4-1h-4q-5 0-28-5l-22-4h-2q-1-1-12-3-10-2-18-6-9-2-24-9-16-7-26-14l-10-7v-1t-2-2l-1-2h-1q0-1 0-1-1 0-1-1h-1q0-1-4-5-4-5-4-16t4-15l4-4v-1l1-1 1-1v-1h1v-1h1l2-1q1-1 2-1 1-2 8-6t8-7l2-2v-7q0-7 1-24l1-16h-1l-1-1q-2-1-6-3-5-2-13-9l-9-6q0-1-2-4l-3-3-1-1v-1l-1-1-1-1v-1h-1v-1h-1v-1q0-1-1-1 0 0-1-6t5-13q7-8 13-13l7-4h1t4-3q4-2 7-29l4-26h-2v-1h-1q0-1-7-5t-13-8-12-12-6-13 0-7q2-1 6-5l4-5h1t3-2l2-1v-1t1 0q1-1 1-1 1-1 4-2l4-2v-1h1v-1h1v-1h2q2 0 4-1 1-1 3-11l1-11h1v-2q1-2 3-15 2-14 0-16l-3-1h-1q0-1-2-1-3-2-12-8l-10-6v-1h-1v-1h-1v-1l-1-1v-1h-1q0-1-3-5-3-5-4-10-1-4 3-8t11-8l6-3h1q1-1 2-1t7-2 10-23l4-20v-1q1-1 1-4 0-2-3-4t-13-7l-10-6h-1v-1h-1l-1-1q-1-1-1-1l-1-1h-1v-1h-1v-1q-1 0-4-5-3-6-3-11t4-9l6-5q0-1 4-2l3-1q1-1 1-1 1-1 4-2l4-1t4-2 5-9l1-8h1v-1q1-2 3-16l2-14v-1q0-1-8-5l-8-4q-1 0-1-1h-1l-1-1h-2l-1-1-1-1h-1v-1t-3-2q-2-3-5-8-4-5-5-5t-1-2l-1-2h-1v-4q0-4 2-7t8-7l5-4h1t2-2l3-1v-1q1 0 1 0 1 0 6-4 6-2 7-8 1-5 3-12l1-8v-3q1-3 3-16t9-34l6-21q1-1 1-1v-2l1-1 1-2v-2q0-1 2-5t4-13q2-10 6-25t11-28 11-19l4-5q0-1 0-1h1v-1l1-1v-1h1v-1h1l7-9q7-9 19-19 11-12 14-14 4-2 4-3h1v-1h2v-1h1v-1h1l1-1 1-1h1l6-4q6-4 6-5h1v-1l5-2q4-2 4-3t20-10 31-13 13-4h1l1-1 1-1h3l2-1 1-1 12-2q12-2 13-3h2v-1h5l22-4q22-2 41-2 18 0 20 0t3 1z" fill="#fdfdfc" stroke="#fdfdfc"/>
  <path d="m95 1004h1l4 3q5 3 6 3t1 1 16 6 31 9 18 4h3l1 1 2 1h4v1h-4l-4 1h1l-3 1h-4q-1-1-12-3-10-2-18-6-9-2-24-9-16-7-26-14l-10-7v-1t-2-2l-1-2v-1q-1 0-1 0-1 0-1-1h1q2 0 8 6 7 5 10 7 2 2 3 2z" fill="#4d4947" stroke="#4d4947"/>
  <path d="m337 653l21 1q20 0 24 1t8 1h3t-5 1l-6 1h-3l-1 1-2 1h-16q-15 0-30-2h-15l-1-1h-1v-1h1v-2h11q11-1 12-1z" fill="#c5746d" stroke="#c5746d"/>
  <path d="m453 77h1l2 3q1 2 8 4 6 2 6 1t2-1q1 0 6 0 6-2 6-2l15 3q15 3 33 8 19 5 23 7t5 2h1v1h1v1h3v1h1v1l1 2v2h-5v-1h-1v-1h-1q-2 0-7-2l-5-2h-2t-16-5q-15-5-24-6l-8-1v3h2l1 1h2v1h1v1l20 7q19 7 20 8l5 3q5 2 5 3h1q0 1 1 1l2 2q2 2 2 3v1l7 6q6 6 6 6h1v1l1 1 1 1v3l-1-1v-1h-1q-1 0-2-1-2-1-2 1 0 1-2 2-1 0-2 3 0 3-2 3h-1l-2 1-2 1h-2v2h3v1h2q2-1 3-1h1l1 1 1 1-2 5q0 5-1 7t-1 4v1q-1 1-1 1h-1t0 1v1t-14 20l-14 19q-1 1-1 1h-1t0 1q-1 1-1 1h-1t-3 3l-3 3h-1l-1 1-1 1h-2v1h-1v-2h-1v-1h1v-2q0-1 0-3l-1-2v-2l-1-2v-1h-1v-1h-1v-1h-1l-1-1q-1-1-11-1t-20 4-24 5l-14 1v-2h-2v-1h1v-1h3l1-1 2-1h4q4 0 9-2 5 0 16-6 11-4 20-11 9-6 9-7t1-1 2-2 1-7-2-14q-2-8-6-13-3-5-8-9-6-4-12-9-5-5-12-9t-16-12q-9-6-15-8l-6-2h-5v-2h2l2-1 2-1 8-2q7-2 8-4t2-4q2-2 1-2t-1-3 1-4zm104 79t0-1q1 0 1 1 0 0-1 0z" fill="#b2cdae" stroke="#b2cdae"/>
  <path d="m454 75l-4-2 14 1q14 1 14 3 1 2 3 3 3 1 3 2 0 0-6 2-5 0-6 0-2 0-2 1t-6-1q-7-2-8-3l-2-2v-2h2q2-1-2-2z" fill="#a7c8a7" stroke="#a7c8a7"/>
  <path d="m394 543h3l27 1q27 2 34 2h7v1h-7q-6 1-6 1t-9 1l-10 1h-1q-2 0-37-2l-35-2 13-1q13-1 15-1t6-1z" fill="#94abcf" stroke="#94abcf"/>
  <path d="m516 654v-1h4l3 1h1v2q0 2 1 2t1 1q-1 1-3 2l-2 1 4 1q3 1 4 2 0 1 3 1 2 0 2 1t7 3 19 2 14-1q1-1 8-1t18 2q10 1 13 5t5 5q0 2 6 4 6 3 8 6 3 2 4 3l2 1h3v1h1v1h1l1 1 2 1h1-13q-1 0-12-2-12 0-26-5t-44-10q-30-6-35-7-5-2-17-3l-12-1-1-1-1-1h-2v-1h4q5-1 10-1h6l-3-1q-3-1-4-1h-1l-2-1-2-1h2l2-1 3-1h3q4 0 2-2-2 0 0 0 1 0 5 0h4l-1-1q-2-1-3-1t-1-1v-1h2l3-1q3 0 3-1z" fill="#a02034" stroke="#a02034"/>
  <path d="m801 426v-2l7 4q8 4 14 9t7 5v1h-3q-3-1-4-1h-1l-1-1q-1-1-8-5l-8-4h-1t-1-2l-1-1q0-1 0-3z" fill="#91a98c" stroke="#91a98c"/>
  <path d="m838 960v-3l3 9q3 10 3 18-2 9-4 15t-2 6q0 1 0 1h-1v-2q0-2-2-2t-8 5l-6 5h-1q-2 0-4 2-2 1-6 2-4 2-12 5t-12 5h-4l-1 1-1 1h-2l-2 1h-8q-8 1-16 2l-7 1-1 1h-8q-7 1-30 1h-27q-3 0-31-4-29-4-49-8l-20-4t-5-1l-4-1h-7q-7 0-21-2-15-2-25-1h-10v-1h6v-2h-2l12-2q13-2 11-3t21-4q23-2 23-3t14-4q14-2 22-4 8-1 10-2 2-2 4-3 1-1 3-2l2-1h8l1 1 1 1 7 2q7 2 36 3 28 1 52 1 25 0 34-2 8-2 9-2h1l8-2q9-2 10-3h4l2-1 10-4q10-4 16-8t6-8z" fill="#f0ede7" stroke="#f0ede7"/>
  <path d="m569 1018h10l20 4q20 4 49 8 28 4 31 4h3l1 1 1 1h7l7 1 6 1h2v1h-2l-3 1h-13q-13 0-56 2-44 2-66 5-21 3-56 6l-36 3-4-1-4-1h-2q-2 0-4-1-3-1-4-2 0-1-2-1-3-1-3-2t-1-1-1-1-2-1l-2-1h-1v-2h1q1 0 3-2l2-2-6-1h-5v-1l15-1q14-2 15-2h3l2 1 5 4q5 4 9 3t7-3q3-3 5-6 2-4 8-4 7-2 7-2l22-4q22-4 32-4z" fill="#2b222b" stroke="#2b222b"/>
  <path d="m174 1034l4-1h8l14 3q14 2 21 3t9 1h2l4 1 5 1h-6l-3 1-2 1h-10q-5 0-28-5l-22-4h2l3-1h-1z" fill="#4f4b49" stroke="#4f4b49"/>
  <path d="m488 534h-18q-17 0-45-2l-28-2h-1q-1 0-1-4t45 0q44 2 48 2 3 0 4 3 0 3-2 3-1 0-2 0z" fill="#6389bb" stroke="#6389bb"/>
  <path d="m401 414v-2l2-1h2l1 2q2 1 6 2l3 1h-2l-4 1-4 1h-3q-1 0-1-4z" fill="#8ab48d" stroke="#8ab48d"/>
  <path d="m602 558h4l2 1 1 1h5l6 2q6 1 6 2t16 5q16 3 31 7 15 2 29 3 13 1 22-1 10 0 10 0 1 0 3 0h9l12 2q13 2 26 2 14 0 17-3 3-2 3-2 1-1 2-1h2v-1l1-1 1-2v-1h-1v-1h1v-1h-1v-1h-1v-1t-1 0v-1h-1v-1h-1v-1h-2v-2h2v1h1v1h1v1h1v1h2v1h1q0 1 1 1t13 8 15 13q2 4 2 15 0 10-7 14t-17 7q-9 3-29 3t-33-1l-12-1h-1q-1-1-1-2t-10-3q-10-1-36-9-27-8-58-20-32-10-41-14l-9-2-1-1-1-1h2v-1h-1v-1h3l-1-1-1-1h4l-2-1-2-1h-1l-2-1q-2-1-7-2l-4-1-2-1-3-1h-2v-1h3l2-1h10q10-2 14-2 3 0 6 0z" fill="#4773a7" stroke="#4773a7"/>
  <path d="m406 413l-1-2 47 1q46 2 46 2t1 3v3h-1q-1 0-5 1t-47-1l-43-2h2l4-1 4-1h2l-3-1q-4-1-6-2z" fill="#709b70" stroke="#709b70"/>
  <path d="m106 426l2-14 1 2q1 2 7 2 5 0 6 1t1 1h-3v2t2 2 3 2l4 3q4 3 9 3 4 1 5 3t17 5q15 4 23 7 7 3 12 4 4 1 4 2t3 1q2 1 2 2t2 1q2-1 3 0l1 1h1v1h1v1h1v1h1v1h1v1h-1l-1-1h-3v1l-1 1-1 1v1h-6q-5 0-28 0-24 0-25 2-1 1-6 4-6 2-9 5t-6 7q-4 4-9 4t-7 4q-1 3-2 3l-2 1h-1l-1-1-1-1h-1v-2h-2v-2h-1v-1h-1v-1l-1-2v-1q1 0 3 1 2 0 0-8l-3-8h1q1 0 2 1t1-13v-14q1-2 3-16z" fill="#2c3755" stroke="#2c3755"/>
  <path d="m266 647h9v1h7l8 2q8 0 20 1h14l1 1h6q6 0 6 1-1 0-12 1h-11v2h-1v1h-5q-5-1-26-3l-21-2h-8v-2h1v-2h12v-1z" fill="#c0675f" stroke="#c0675f"/>
  <path d="m95 778l4-26h1v1h1v1l2 4q1 4 3 10 0 7 3 10 3 2 7 5 5 3 18 4 12 2 12 3t2 1 2 1 7 3q7 1 17 3 9 2 12 4 4 2 8 2h3l1 1v1h-3v-1h-1v1h-1v1h-1v1l-20 1q-20 1-28 3-9 2-14 4-6 3-6 4-1 2-2 2t-3 4q-3 5-5 7-2 3-10 3t-12-3q-5-3-8-2-4 1-5 1h-1v1l-1 1q0 1-1 1h-1v-1q1-1 0-1l-1-1v1h-1v1h-2v1h-1v-4h2v-2q0-2 4-7t5-8l2-4h1t4-3q4-2 7-29z" fill="#b88a3d" stroke="#b88a3d"/>
  <path d="m296 475h2v1h3l4 2q4 0 13 2t42 6q34 2 42 3 9 1 10 2t14 1q12-2 22 0 11 2 25 2t15 1q2 1 4 1 3-2 36-1t39 1q6 1 7 3 2 1 4 2h1v1q0 1 2 2 2 2 3 2h2l1 1q1 1 2 2h1v1q0 1 5 4t16 12q11 10 11 11t1 1 1 2q1 2 4 4 2 2 3 3 0 1 0 1h1v1l1 1v1h-1l-1 1h1v1l-1 1v1h-1l-1 1h-1q-1 0-12 1l-10 1h-4q-3 0-6 0-4 0-14 2h-10l-2 1h-8q-5-1-14-3t-26-4l-16-2h-2q-3 0-21-3l-18-2v-1h-7q-7 0-34-2l-27-1q0-1-44-2l-44-2v-1h-5q-6 0-12-1l-6-1h-9v-1h3l3-1h6v-1h-1v-1l2 1q2 1 6 1h4v-3h-1v-1h-1l-1-1-1-1h-2q-2 0-9-3l-7-3q0-1-1-1h-1v-1h-1l-1-1q-1-1-9-6l-8-6v-1q-1 0-5-4-4-5-12-14l-8-10h-1v-1h-1v-4l1 1q1 0 1-1t16-1q15 0 30 1 16 1 18 2zm192 59h-18q-17 0-45-2l-28-2h-1q-1 0-1-4t45 0q44 2 48 2 3 0 4 3 0 3-2 3-1 0-2 0z" fill="#345c93" stroke="#345c93"/>
  <path d="m128 528h1l33 8q32 8 47 11t17 3h8l16 4q17 2 27 4 9 1 50 5 40 5 48 5t13 1h5v1h3l18 2q18 0 25 1h7v1h22l-2 1q-2 1-4 1h-1l3 1 3 1 5 1q5 1 5 2t-48 3-55 2q-8 0-17-1l-9-1-2 1-1 1h-1v1h-6q-5 1-34 1-30 0-45-2t-17-1q-3 0-3 1 0 2-1 2t-1-1q-1-1-1 0t-2 1l-2 1v1h-4q0-1-1-1v-1q-1 0-5-6l-4-6h-4v2h-3v-1h-1v3l2 4q2 4 6 11 5 7 5 7h1v1h1v1h1v1h1v1l5 4q5 6 5 6h1v1h1v1h1v1h1v1h2t1 1q0 1 0 1h1l8 6q8 6 9 6 2 2 4 2h1v1h1v1h2v1h1l2 1q2 2 3 2h1l1 1 2 1h1l1 1h1v1h1l-4 1h-16q-3-1-20-3-16-2-32-4l-17-2v1h1v1h-1v1h1v1h1l1 1 1 1h2l22 4q22 2 26 3h4v1h8l21 2q21 2 26 3h6l1 1h15q15 2 30 2h15l3 1 2 1h6q7 0 19 1h12v1h-7l1 1 1 1h1v1h-1v1h-4l6 1h7v2h-3l-2 1h-4q-4 0-2 1 1 1-8 1-9 2-9 2-1 1-1 2-1 0 0 1 0 1-4 1-5 0-26-1-20-1-21 0t-9 2-20 3l-13 2h3l1 1 1 1h2q2 2 1 2-1 1-1 2 2 1 2 1v1h1l1 1 1 1h1l-2 1-2 1h1l-1 1-1 1h-2q-2 0-21-2-18-2-20-2-1-2-16-2-14 0-24 0-11 0-12 2 0 1-2 1h-1v-1q-1 0-2-2l-1-2v-2q0-2-4-8-3-7-7-7-4-1-5 1 0 1-1 1t-1 1-8 0q-9-2-12 0-2 0-7 0-5-2-15-2-11 0-20 0l-9-2-1 1v-1h-1v-1h1v-1q0-1 0-2t2-8q2-6 1-6-2 0-3-4-2-3 0-8 2-4 0-4-1-1-3-5-1-4-5-5-3-2-7-2l-4-1h-1q0-1-2-1-3-2-12-8l-10-6v-1h-1v-1h-1v-1l-1-1v-2h1l1 1h1v-3h3l4 1q4 1 5 2l1 1h8-1v-2h-3l-1-1q-1-1-4-3l-4-2v-2q0-1 2-4l2-2 1-1 1-1h-6q-6 0-6 1 0 0-1 0v1h-4v-2l1-2v-1l1-1 1-2v-1t5-5l4-5h1q1-1 2-1t7-2 10-23l4-20h1v-1h1v1h1v-2q1-1 10 0t9 2 1 1z" fill="#831b2f" stroke="#831b2f"/>
  <path d="m305 700h5l12 4q13 4 36 6t25 4q3 1 3 2 1 0 27 1 27 1 46 3t51 3 36 2 18 7q14 7 26 16 12 10 12 11t10 8q11 7 12 7h1l1 1 1 1h3v1l-1 1v1h-4v2h-1l-1-1q-1 0-1 0t-27 2q-27 0-29 2-2 0-8 2-7 0-22 0h-21q-1 0-20-3l-19-2h-4q-5-1-13-1l-8-1v-1h-11q-11 0-41-2l-30-1h-13q-12-1-20-1h-7v-1h9q9-1 10-1h2l2-1 1-1h-6l1-1 2-1h5v-2h-7v-3h-1v-1h-1l8-1 8-1h3v-2h-3l-1-1-1-1h-2v-1l-1-1-1-1q0 1-2 1-1 2-3 2-3 1-7 0-5 0-5-1-1-1-4-1-4 0-4-3-1-3-4-6t-9-3-13-5-7-6q1-1-7-3t-8-3-3-1-20-1q-16-1-18 1-3 0-5 0l-1-1-1 1v1h-2l-2 1h-3q0-1-3-4l-2-2q-1-1-1-1v-1q0-1-6-9l-5-9h-1v-2h-1v-1h1q2 0 2-1 1-2 12-2 10 0 24 0 15 0 16 2 2 0 20 2 19 2 21 2z" fill="#b74632" stroke="#b74632"/>
  <path d="m684 936l4-3 26 3q27 4 43 3 17 0 17 0v1h7l1 1q1 0 3 3 3 4 5 7t3 7q2 4 3 5 1 0 0 2 0 2 0 3v3h-1v1h-3q-2 0-9 2t-31 3l-25 2h-4q-4-1-19-2l-16-2v-1h-3l-1-1-1-1h-1q-1 0-3-1t-2-2q-1-1-4-4t-3-7 4-9q6-5 6-8t4-5z" fill="#b78942" stroke="#b78942"/>
  <path d="m75 498l1-2t2 1l3 1h1l1 1h1l6 3q5 2 22 8 16 6 18 7 3 1 3 1l-1 2q0 1-1 2 0 0 1 1t1 1h-1v1h-1v1h1v2h-4q-1 0-1-1t-9-2-10 0v2h-1v-1h-1v1h-1v-1q1-1 1-4 0-2-3-4t-13-7l-10-6h-1v-1h-1l-1-1q-1-1-1-1l-1-1v-3z" fill="#455477" stroke="#455477"/>
  <path d="m106 391h1q0 1 1 1l14 4q15 4 15 5t23 6 25 6l2 1h8v1h-4l-4 1h-2q-3 1-2 2t1 2h-2q-3 0-16-4-12-2-40-11l-27-8v-1q-1 0-1 0v-1h-1v-1h-1v-1l-1-1v-2h1q2-1 0-3 0-2 5 1 5 2 5 3z" fill="#528e63" stroke="#528e63"/>
  <path d="m486 435l12 1q12 2 16 2h5v1q0 1 1 1 2 0-10 1l-11 1h-5q-6 0-18-2h-12l-4-1h-4v-1l15-1q15-1 15-2z" fill="#9bb895" stroke="#9bb895"/>
  <path d="m806 969h1v1q0 1-1 1t-2 1q0 2 0 2v3l1 1v1h-1l-1 1h-2v1h-1q-1 1-10 3l-8 2t-5-2-27-3l-23-1v-1l25-2q24-1 31-3t9-2h3v-1h1v-1h7q2 0 3-1z" fill="#c4ad81" stroke="#c4ad81"/>
  <path d="m768 1029h7v1h4v1h1v1h2t-8 2q-7 0-17 2l-10 1 1-1q1 0 2-1l2-1h-10v-1h2l1-1 7-1q8-1 16-2z" fill="#cecbc6" stroke="#cecbc6"/>
  <path d="m666 835v-1h2l8 1q9 1 22 4t24 4 11 2 13 2 22 1q10 0 17 0h7v-1h1v-1h2v2h-1q-1 0-1 2l-1 1v2l3 2q3 2 7 7 2 4 4 6 0 2 0 5t-3 6q-2 3-6 5t-5 4q-2 2-4 2t-5 1l-3 1h-6l-2 1h-12q-12-1-24-2l-11-1-1-1-1-1h-1l-1-1-1-1h-3v-1q-1 0-12-4-11-3-17-7-5-4-7-6-3-2-8-5t-5-5q0-1-1-1t-2-1q-1-2-3-8l-4-6v-2h1q1 0 2-2t3-2q1 0 1-1h1z" fill="#a54f34" stroke="#a54f34"/>
  <path d="m100 628l-3-1 4 1q4 0 7 2 4 1 5 5 2 4 3 5 2 0 0 4-2 5 0 8 1 4 3 4 1 0-1 6-2 7-2 8t0 2v1h-1v1h1v1l-2 1q-2 1-2 0t-1-1-1 1-2 1q-1 0-2 2 0 2-1 3l-1 1v3h-1v1h-1v-5l-1-2q0-2-1-2-2 0-2-8l-1-9v-2q1-2 3-15 2-14 0-16z" fill="#85393e" stroke="#85393e"/>
  <path d="m512 44h1q-1 1-2 2-1 0-1 1t1 2l1 1v1h1v1h-5v1q-1-1-11-3t-27-2-17-1-2-1q-3 1-7 1h-5q0-1 1-1t-4-2h-6l-2-1h-2v-1h6q5-1 5-2v-1h1l1-1h1v-2h1v-1h1v-1h-2l-3-1q-3-1-3-1h1q1 0 1-1l15 1q15 0 31 4 17 4 23 6t7 2z" fill="#b9d2b7" stroke="#b9d2b7"/>
  <path d="m222 719q0 1 0 1h1l2 2q3 3 3 4v1h1v1h1v1h1v1h1t0 1h1l2 3q2 2 2 3h1v2q0 2 0 3v1h-1l-1-1h-1v-1h-1v-1h-1v-1h-1v-1h-1t-7-8l-8-7q0-1-1-2l-1-2v-2q-1-3 2-2 2 1 4 2 1 1 2 2z" fill="#e1b196" stroke="#e1b196"/>
  <path d="m211 327l2 1t1 1l6 13q6 14 10 20 4 7 5 8 0 0 1 1 0 1 0 1h1t1 1v2l2 1q0 2 1 2v1q0 1 1 1 0 0 0 1h1q0 1 1 1v2h1v1h1v1l1 1 1 1v1l1 1v1h-1l-1-1h-2l-1 1v-1h-1l-1-1v-1h-1v-1q-1 0-5-5t-5-5-3-3q-2-4-7-12l-5-8q0-1-1-1v-1l-1-1v-1q0-1-3-8l-2-7v-5q1-4 2-3z" fill="#b1ccae" stroke="#b1ccae"/>
  <path d="m89 352h1v1q0 1-1 1v2h-1v1l-1 1-1 1v1l-1 2v2h3v-1l4-1q3 0 5 0h4l1 12q0 12 3 14t3 3v1h-1q-1 0-1-1t-5-3q-5-3-5-1 2 2 0 3h-1v1h-1q-2-1-3-1-1-1-8-5-8-4-8-5-1-1-2-2-1 0-1 1t-2 0l-1-1h-1v-4q0-4 2-7t8-7l5-4h1t2-1 2-2 1-1z" fill="#538660" stroke="#538660"/>
  <path d="m689 216l1-1v1l3 2q3 2 3 3h1v1h1t0 1h1q0 1 1 1 0 0 0 1h1v1h1v1h1q0 1 1 1 0 0 0 1h1l7 16q8 16 25 74t19 67q2 10 2 12v10h1v1h1v3h-2q-2 0-3-1-1 0-1-1-1-2-2 0 0 1-4 0-4 0-4 2 0 1-10 3t-10 3-11 4q-11 2-40 4t-43 5-14 5q0 1-6 2h-6v1h-1v1h-3v1h-4q-5 1-11 1l-6 1h-9q-9-1-30-3l-21-2h-5q-4 0-16-2l-12-1h-4q-4-1-15-1l-11-1q0-1-50-2l-50-1-21-1q-21-1-35-1l-13-2h2l3-1 2-1h11v-2l-1-1v-1h-2l-1-1-1-1h-1q-1 0-8-3l-7-3h-2v-1h-1v-1h-1v-1t-7-4q-6-3-17-13l-12-10q0-1-1-1v-1q-1 0-1 0 0-1-1-1v-1q-1 0-1-2l-2-1v-1h-1v-1h-1v-1l-1-1v-1h1v-1l1-1 1-1v1h3q3 1 3 1v1h1v1h1v-1q0-1-2-4v-2h2q2 0 2 0l1 1q1 0 1-1t2-1l1 1h1q1 0 2 3 2 3 6 5 4 3 4 4t2 1l1-1 4-1q5-1 5-3 2-1 2-7 1-6 4-8 4-2 7-11 4-8 6-11 1-3 2-9 0-6 5-8 4-2 10-2 7 0 10-2 4-2 5-7t6-5 9 4 10 4 8 0q3 2 8 1t9-5q5-4 8-8 4-4 67-7t73-6q9-4 26-9 17-6 31-10 15-4 27-8t17-7q6-3 12-6 5-3 11-3t7 0q2 2 6 2 3 0 8-2t8-5q2-3 4-8t2-7v-2h1v-1h1v-2l1-1zm-451 155t1 0q0 1-1 1 0 0 0-1zm174 5q2 0 2 2 0 3-2 3-2 1-2-2-1-3 2-3zm77 2q3-1 3 1 0 3-2 3-3 0-3-2-1-2 2-2zm-88 36v-2l2-1h2l47 1q46 2 46 2t1 3v3h-1q-1 0-5 1t-47-1l-43-2h-1q-1 0-1-4z" fill="#377951" stroke="#377951"/>
  <path d="m116 675l1-1 9 2q9 0 20 0 10 0 15 2 5 0 7 0 3-2 12 0 8 1 8 0t1-1 1-1q1-2 5-1 4 0 7 7 4 6 4 8v2h-2q-2 0-3 2-1 3 0 5l1 2 4 7q4 8 5 8v1h1v1h1l1 1 1 2q1 1 1 2l8 7q7 8 7 8h1v1h1v1h1v1h1v1h1l1 1h1l6 5q5 4 8 6 2 2 3 2h1l1 1 1 1h2l4 2q4 3 5 3v1h3l3 1h3v-3h-1l-1-1-1-1h-2v-1h-1v-1h-1q-1 0-5-2l-4-2q0-1-1-1v-1q-1 0-1 0-1 0-2-2-2 0-14-10l-11-9v-1h-2v-1h-1v-1h-1v-1h-1v-1h3l2-1h2v-1l1-1 1 1q2 0 5 0 2-2 18-1 17 1 20 1t3 1 8 3 7 3q0 1 7 6t13 5 9 3 4 6q0 3 4 3 3 0 4 1 0 1 5 1 4 1 7 0 2 0 3-2 2 0 2-1l1 1 1 1v1h2l1 1 1 1h3v2h-3l-8 1-8 1h1v1h1v3h7v2h-5l-2 1-1 1h6l-1 1-2 1h-2q-1 0-10 1h-22q-14-1-53-4t-47-4h-9v-1q-1 0-8-1-8-1-11-3l-4-1h-2l-1-1h-5l-2-1q-2-1-14-3t-28-8q-15-6-26-10-10-6-12-8-2-3-4-4-3 0-4-2v-1h-1v-1h-2v-1l1-1h1l1-1q2-1 4-1 1-1 2-4 0-2 1-2 1-1 1 0 0 2 2 1 1-1 0-3 0-3 1-3 2 1 1 0-1 0-1-1v-1h1q1 1 2 1 0 0 1-6 1-5 1-8l1-3v-1h1v-3l1-1q1-1 1-3 1-2 2-2 2 0 2-1t1-1 1 1 2 0l2-1z" fill="#b14332" stroke="#b14332"/>
  <path d="m204 692h2l1 2q1 2 2 2v2h1v2h1l6 9q5 9 6 10v1h-1q-1 0-2-2-2-2-4-3-3-1-2 2v2l-1-1h-1v-1h-1v-1q-1 0-5-8l-4-7-1-2q-1-2 0-5 1-2 3-2z" fill="#c67860" stroke="#c67860"/>
  <path d="m786 692h1l1-1h1v-2l-1-2q0-1 0-1h1v-1h1v-2h1q1 1 3 1h3l1-1h1v-1l-1-1v-1h1q1 0 2 0 1-2 1-3l-1-1v-1h-1v-1h3l12 8q11 7 17 12 4 5 6 8 0 2 0 10 0 9-5 14-4 4-17 8-12 4-14 5h-17q-16-1-28-1l-12-1v-1l9-1q10-1 10-2 1-1 2-2l2-1h2v-1h1v-1h2l-1-1h-2v-3l-1-1v-1h-1q-1 0-7-3-7-3-9-4t-4-2-12-3q-11-2-22-6-11-2-20-6-8-4-13-6t-24-7q-18-5-27-9-8-4-8-5t-10-4q-9-3-23-5l-14-2h-3l-1-1-1-1h1v-1h1v-3h1v-1h1v-1t4-2q4-3 5-4l1-2 2-1 2-1h-2l-1-1-1-1h-1q-1 0-5-4l-5-2v-1h-1v-1t-2-1l-1-1v-2q0-3 3-2 2 2 13 9t20 13 19 10 18 8q9 4 27 10 18 4 28 7t20 4 10 2 2 1q2-1 2 0t8 2 8 2 11 3q11 1 16 2 5 0 5-1 0-2 1-2 2 0 2-1t2-2 2-1z" fill="#941e33" stroke="#941e33"/>
  <path d="m194 806l1-1h1q0 1 1 1h1l9 14q9 14 10 14t1 1v1h-1q-1 0-3-2-3-2-3 0l1 2v2l1 2 1 1 12 12q12 13 18 16 7 3 8 4l1 1h2l2 1 2 1h1v-2h-1v-1h-1v-2l3 1q3 0 15 6 11 4 13 5t1 1q-2 1 3 3 4 1 15 2l10 1h1l3 1 3 1h2v1h-4l-4-1h-8q-8 0-27 1l-19 1h-4v1h-7q-6-1-28-1-23 0-40-1-16-1-19-1t-3 1-4 1h-6q-1 0-22-6-20-6-24-7l-3-2v-1q-1 0-1 0 0-1-10-7t-17-11l-8-4v-1h-1v-3h-2v-2h1v-1h1v-1h-1 3q3 0 4 0h2v-1h1v-1h-1q-2 0-2-1-1-1-1-4-1-3 1-5l1-1h1q0-1 0-1h1v-1h1v-1h1q1 0 5-1 3-1 8 2 4 3 12 3t10-3q2-2 5-7 2-4 3-4t2-2q0-1 6-4 5-2 14-4 8-2 28-3l20-1v-1h1v-1h1z" fill="#e3bd35" stroke="#e3bd35"/>
  <path d="m219 207v-1h1v1l1 1 1 1-3 9q-3 8-3 9-1 1-2 1h-1v2l-1 1v2h-1v1h-3v-5l1-3q1-3 1-6l1-2h1v-1l1-1q1-2 3-6l2-3h1z" fill="#6fa276" stroke="#6fa276"/>
  <path d="m832 913l3-3-3 4q-2 5-5 8-3 4-5 5t-1 3q1 1 1 2v1h-1q-1-1-3-3l-1-2q1-1 6-6l5-6h1q1 0 3-3z" fill="#e5d4b0" stroke="#e5d4b0"/>
  <path d="m476 781l19 2q19 3 20 3h1v2t-1 0v1h-7q-6-1-26-2l-21-1v-1l9-1q9 0 8-2-2 0-2-1z" fill="#cf8251" stroke="#cf8251"/>
  <path d="m88 463l4-1h3q3 1 3 3t1 3 1 1l2 7q2 8 0 8-2-1-3-1t-1-3q-1-4-8-2-6 0-9 2l-3 2v1h-1v1h-3v-1h-1v-1h-1v-4h2v-1l1-1q1-2 4-6l4-4h1t0-1q1-1 4-2z" fill="#323b5d" stroke="#323b5d"/>
  <path d="m835 884l1-2v13q0 13-1 14v1l-3 3q-2 3-3 3h-1l-5 6q-5 5-6 6h-1q-1 0-2 2l-2 1h-1q-1 1-8 3t-15 3l-9 1-3 1h-2t-17 0q-16 1-43-3l-26-3q0-1-5-1-5-2-53-14-49-12-70-12h-27l-1-1-1-1h3v-1h-1q0-1-1-1 0-1-2-2-1 0 0-2 0-1-6-2-5 0-12-1h-7v-1q1 0-1-1-1-1-12-1l-11-1v-1h3l2-1 2-1h1l16-2q16 0 63 2t52 2q4 0 10 0h7l1-1 1-1 27 2q28 2 41 1l13-1h5l11 1q12 1 24 2h11v1l17-1q16-1 26-1 10-2 15-2h5v-3l1-3z" fill="#ebcb38" stroke="#ebcb38"/>
  <path d="m99 483v1l1 2v1h1v1h1q2 0 2 1v1h-2v1q0 1 1 1h1v1q0 1-2 1h-1v1l1 1v1l1 1v1h-1q0-1-8-3l-8-3q0-1-2-1t-3-2q-1-1-3-2h-2v-1h-1v-1h-1v-1h-1v-1h-1v-2h1v1h1v1h3v-1h1v-1l3-2q3-2 9-2 7-2 8 2 0 3 1 3z" fill="#3a507a" stroke="#3a507a"/>
  <path d="m316 773h13v1h7q8 0 20 1h13v1h-35l-3 1-3 1h7v1h-13q-13-1-32-1-19-2-48-6l-29-4h-2l-1-1-1-1h-1q-1 0-1-1h9q8 1 47 4t53 4z" fill="#d38d56" stroke="#d38d56"/>
  <path d="m198 806v-1l5 3q5 2 7 2 3 0 36 2t56 4q24 2 78 4 53 2 89 1t36-1h6l23 2q23 2 33 5 11 4 13 8t5 9q2 4 5 8 4 4 5 4t1 2 8 7 8 6 4 3q5 2 10 6 6 4 6 5h1v1h3l1 1 1 1h1l-1 1-1 1h-7q-6 0-10 0-5 0-52-2t-63-2l-16 2h-1l-2 1-2 1h-3v1h-1q-2-1-10-1-7 0-75 1l-68 2v-1h-2l-3-1-3-1h-1l-10-1q-11-1-15-2-5-2-3-3 1 0-1-1t-13-5q-12-6-15-6l-3-1-1-1h-2v-1h-1v-1t-7-5-18-16l-11-11q0-1-1-1v-1q-1 0-10-14l-9-14z" fill="#e2b931" stroke="#e2b931"/>
  <path d="m845 484v-1h2v6h-1q0 1 0 1-1 0-1 1h-1q0 1 0 1-1 0-1 1h-1q0 1 0 1-1 0-8 4-8 4-16 6-7 2-26 2-20 0-31-1l-11-1v-4h-2l2-1 1-1h17l22-1q23-1 31-2 9-2 13-4 5-3 6-3 0 0 1-1l1-1h2v-1l1-1z" fill="#426752" stroke="#426752"/>
  <path d="m101 451l1-8h1v13q0 14-1 14 0 0-1-1h-1v-1t-1 0q-1-1-1-3t-3-3h-3t4-2 5-9z" fill="#7e8396" stroke="#7e8396"/>
  <path d="m387 635l1-1 4 2q5 0 10 1h6v1t-1 2-6 3l-5 1h-5l-1-1-1-1q-1 0-1 0 0-1-1-4-1-2 0-3z" fill="#b04c48" stroke="#b04c48"/>
  <path d="m574 142h1v1l1 1v9l1 1v2q-1 1-4 6-3 6-7 10l-4 3v-1q0-1 2-4 2-4 2-9l2-5-1-1-1-1h-1q-1 0-3 1h-2q0 1-2 1h-2v-1l-1-1v-1h1l1-1h2l2-1 2-1h1q2 0 2-3 1-3 2-3 2-1 2-4 0-2 1-2t1 2q1 2 2 2z" fill="#a3c5a2" stroke="#a3c5a2"/>
  <path d="m262 754l-2-2 5 3q5 3 6 3h1v1h1v1h2l1 1 1 1h1v3h-3l-3-1h-3v-1q-1 0-5-3l-4-2h4v-1q0-1-2-3z" fill="#d17c50" stroke="#d17c50"/>
  <path d="m418 43h10l2 1h6q5 2 4 2t-1 1h-3q-3 1-52 3l-48 2v-2h-1v-1h1v-2h2v-2l5-1q5-2 7-2h2l2 1q3 1 2 0 0-1 1-1 1-1 1 0 1 2 27 2t33-1z" fill="#aac8a9" stroke="#aac8a9"/>
  <path d="m443 779h8l8 1q8 0 13 1h4q0 1 2 1 1 2-8 2l-9 1h-7q-7-1-29-1l-22-2 16-1q16-1 24-2z" fill="#dba280" stroke="#dba280"/>
  <path d="m811 931h1l3 5q3 4 3 12 0 7-2 11-2 5-5 7t-3 3h-1q-1 0-1 1h-10v-2q0-1 0-3 1-2 0-2-1-1-3-5-1-4-3-7t-5-7q-2-3-3-3l-1-1h-7v-1h2l3-1 9-1q8-1 15-3t8-3z" fill="#997a56" stroke="#997a56"/>
  <path d="m837 1004v2t-3 2q-2 2-2 3t-4 3l-5 2q-1 0-1 0v1h-2q-2-1 0-3l1-2 6-5q6-5 8-5t2 2z" fill="#b6b5b1" stroke="#b6b5b1"/>
  <path d="m779 414v-1l9 4q10 5 11 5 1 1 2 2v2q0 2 0 3h-1q-2-1-4-2t-10-7q-7-5-7-6z" fill="#93ac90" stroke="#93ac90"/>
  <path d="m438 433h18l11 1q11 0 15 1h4q0 1-15 2l-15 1v1h-8q-8-1-32-1l-24-2h1l13-2q14 0 32-1z" fill="#9eb596" stroke="#9eb596"/>
  <path d="m68 857l-3-3h3v1h1v1l8 4q7 5 17 11 9 5 10 6h1v2h-2l-2-1h-1v2h-1l-1-1q-2-1-6-3-5-2-13-9l-9-6q0-1-2-4z" fill="#d0b362" stroke="#d0b362"/>
  <path d="m308 46h3v1h1v1h8q8 0 8 1t4 1h4v2h-2q-1 0-6 2-6 2-32 10-25 8-40 16l-14 6-1 1h-1l-1-1h-1l-1 1h-1v-3h1v-1h1v-3l-2-1h-1v-1l5-2q4-2 4-3t20-10 31-13 13-4z" fill="#a8c7a8" stroke="#a8c7a8"/>
  <path d="m82 494l2-1h2l8 3q8 2 8 3h1l13 4q12 5 36 11 25 6 35 8t14 3l4 1h-1v1h-1v1h-3l1 1 1 1h1v1h-3q-2-1-34-7l-33-6t-3-1q-2-1-18-7-17-6-22-8l-6-3v-2l-1-1-1-2z" fill="#537cb1" stroke="#537cb1"/>
  <path d="m762 497l6 1h-17l-1 1-2 1h2v9l1 1v1h-1v-1h-1v-1h-1v-4l-1-1q0-1-13-3-13-3-21-5t-38-11l-30-9-1-1-2-1h-2l-1-1q-1-1-1-1h2q2 0 3-1t5 0 15 3 48 11 41 11q4 0 10 1z" fill="#366c4e" stroke="#366c4e"/>
  <path d="m211 576l1 2h2v-2h4l4 6q4 6 5 6v1q0 1 1 1v2h1v1h1l2 3q2 4 3 4t1 1v1h-2v-1h-1v-1h-1v-1h-1v-1h-1l-2 1q-2 1-2 3 0 1 1 2v1h-1v-1h-1v-1h-1v-1h-1t-5-7q-4-7-6-11l-2-4v-2q0-1-1-2 0-1 1-1t1 1zm16 20q0-1 1-1t1 1-1 1-1-1z" fill="#ac6157" stroke="#ac6157"/>
  <path d="m476 807q0-1 4-1t4 1 3 0 7-1 2 3q0 3-3 5-2 2-7 1t-8-3q-2-3-2-5z" fill="#9d332c" stroke="#9d332c"/>
  <path d="m369 775l30 1q30 2 41 2h11v1h-8q-8 1-24 2l-16 1h-13q-13 0-34-2l-21-1v-1h-7l3-1 3-1h35v-1z" fill="#d89a75" stroke="#d89a75"/>
  <path d="m563 1016h7l4 1q5 1 5 1h-10q-10 0-32 4l-22 4h-9q-10 0-20-1h-10l-1-1v-1h1l2-1h3v-1h3l3-1h-1q-1 0-1-1t-1-1h-2l12-2q11-2 12-3h11q10-1 25 1 14 2 21 2z" fill="#dbd9d1" stroke="#dbd9d1"/>
  <path d="m342 430h14l50 1q50 1 50 2h-18q-18 1-32 1l-13 2h-33q-33 0-38-1h-5v-1h-4l1-1 2-1h1l6-1q6-1 19-1z" fill="#94b391" stroke="#94b391"/>
  <path d="m96 929l2-2v3q-1 4-5 7-5 3-5 4t-4 5q-4 3-4 4-1 2-2 2v-1q0-1-1-1v-1h1v-1h1v-1h1v-2h-1v-1h-3l2-1q1-1 2-1 1-2 8-6t8-7z" fill="#d3cdc5" stroke="#d3cdc5"/>
 </g>
</svg>
